<?xml version="1.0" encoding="UTF-8"?>
<svg width="294.212913px" height="198.700963px" viewBox="0 0 294.212913 198.700963" version="1.1" xmlns="http://www.w3.org/2000/svg" xmlns:xlink="http://www.w3.org/1999/xlink">
    <title>cloud</title>
    <defs>
        <linearGradient x1="50.0012044%" y1="92.9995306%" x2="50.0012044%" y2="-1.98239477%" id="linearGradient-1">
            <stop stop-color="#E6E6E6" offset="0%"></stop>
            <stop stop-color="#FFFFFF" offset="65%"></stop>
        </linearGradient>
        <linearGradient x1="25.1110664%" y1="28.1332171%" x2="69.1947875%" y2="79.7015312%" id="linearGradient-2">
            <stop stop-color="#FFFFFF" offset="10%"></stop>
            <stop stop-color="#E3E3E3" offset="65%"></stop>
        </linearGradient>
    </defs>
    <g id="cloud" stroke="none" stroke-width="1" fill="none" fill-rule="evenodd">
        <g id="Group" fill-rule="nonzero">
            <g>
                <path d="M32.24,75.5809625 C23.72,25.6809625 101,-30.5290375 158.09,19.5309625 C158.09,19.5309625 175.66,12.5009625 202.88,29.1909625 C231.9,46.9809625 227.47,66.0809625 227.47,66.0809625 C321.45,69.5909625 310.03,198.700963 231.56,198.700963 L50.94,198.700963 C50.94,198.700963 0,182.010963 0,130.190963 C0,95.0609625 32.29,75.8809625 32.24,75.5809625 Z" id="Path" stroke="url(#linearGradient-2)" stroke-width="7" fill="url(#linearGradient-1)"></path>
                <g transform="translate(117.790000, 85.820963)" fill="#FF250A">
                    <path d="M3.77,12.67 L3.05,16.37 L-1.13686838e-13,16.37 L3.5,0.19 L7.27,0.19 L10.41,16.37 L7.36,16.37 L6.66,12.67 L3.76,12.67 L3.77,12.67 Z M6.39,10.22 L5.86,6.84 C5.69,5.86 5.48,4.25 5.33,3.17 L5.26,3.17 C5.09,4.25 4.85,5.93 4.68,6.87 L4.08,10.23 L6.38,10.23 L6.39,10.22 Z" id="Shape"></path>
                    <path d="M12.19,0.43 C13.15,0.21 14.4,0.12 15.77,0.12 C17.28,0.12 18.75,0.31 19.87,1.27 C20.73,1.99 21.09,3.07 21.09,4.2 C21.09,5.64 20.35,7.03 18.74,7.73 L18.74,7.83 C20.61,8.36 21.62,9.92 21.62,11.69 C21.62,13.03 21.19,14.07 20.42,14.86 C19.46,15.92 17.83,16.49 15.12,16.49 C13.92,16.49 12.91,16.42 12.19,16.32 L12.19,0.43 L12.19,0.43 Z M15.33,6.84 L16,6.84 C17.13,6.84 17.99,5.88 17.99,4.56 C17.99,3.38 17.44,2.47 16.14,2.47 C15.8,2.47 15.52,2.49 15.32,2.57 L15.32,6.84 L15.33,6.84 Z M15.33,14.02 C15.52,14.07 15.74,14.07 16.03,14.07 C17.3,14.07 18.36,13.3 18.36,11.65 C18.36,10 17.26,9.2 16.01,9.18 L15.34,9.18 L15.34,14.03 L15.33,14.02 Z" id="Shape"></path>
                    <path d="M33.34,7.99 C33.34,14.09 31.18,16.56 28.11,16.56 C24.44,16.56 23,12.67 23,8.23 C23,3.79 24.75,0 28.33,0 C32.24,0 33.35,4.3 33.35,7.99 L33.34,7.99 Z M26.26,8.28 C26.26,11.95 26.96,13.82 28.23,13.82 C29.5,13.82 30.05,11.42 30.05,8.13 C30.05,5.3 29.62,2.73 28.2,2.73 C26.95,2.73 26.26,4.79 26.26,8.27 L26.26,8.28 Z" id="Shape"></path>
                    <path d="M38.38,0.19 L38.38,10.7 C38.38,13.08 39.1,13.8 39.92,13.8 C40.83,13.8 41.48,13.15 41.48,10.7 L41.48,0.19 L44.62,0.19 L44.62,10.15 C44.62,14.3 43.06,16.56 39.94,16.56 C36.56,16.56 35.24,14.23 35.24,10.18 L35.24,0.2 L38.38,0.2 L38.38,0.19 Z" id="Path"></path>
                    <polygon id="Path" points="49.08 3.09 46.22 3.09 46.22 0.19 55.1 0.19 55.1 3.09 52.22 3.09 52.22 16.36 49.08 16.36"></polygon>
                    <path d="M63.63,0.19 L63.63,10.7 C63.63,13.08 64.35,13.8 65.17,13.8 C66.08,13.8 66.73,13.15 66.73,10.7 L66.73,0.19 L69.87,0.19 L69.87,10.15 C69.87,14.3 68.31,16.56 65.19,16.56 C61.81,16.56 60.49,14.23 60.49,10.18 L60.49,0.2 L63.63,0.2 L63.63,0.19 Z" id="Path"></path>
                    <path d="M72.22,13.15 C72.87,13.51 73.97,13.77 74.88,13.77 C76.37,13.77 77.09,13 77.09,11.95 C77.09,10.77 76.37,10.2 75,9.31 C72.79,7.97 71.95,6.26 71.95,4.8 C71.95,2.21 73.68,0.05 77.06,0.05 C78.12,0.05 79.12,0.34 79.6,0.63 L79.1,3.34 C78.64,3.05 77.95,2.79 77.04,2.79 C75.7,2.79 75.05,3.61 75.05,4.47 C75.05,5.43 75.53,5.93 77.28,6.99 C79.42,8.29 80.21,9.92 80.21,11.62 C80.21,14.57 78.03,16.52 74.86,16.52 C73.56,16.52 72.29,16.18 71.76,15.87 L72.22,13.16 L72.22,13.15 Z" id="Path"></path>
                </g>
                <g id="ah" transform="translate(32.569504, 84.690871)" fill="#FF250A">
                    <path d="M32.9004965,65.880092 C14.6204965,65.840092 -0.0695035008,51.080092 0.000247366333,32.830092 C0.0704964992,14.600092 14.7804965,-0.0299080302 33.0004965,4.59143379e-05 C51.2704965,0.0300919698 65.9804965,14.810092 65.9008213,33.040092 C65.8204965,51.270092 51.1104965,65.910092 32.9004965,65.870092 L32.9004965,65.880092 Z M23.1404965,30.590092 C24.2004965,30.390092 25.1804965,30.090092 26.1804965,30.050092 C28.4004965,29.940092 29.2604965,30.860092 28.9604965,33.080092 C28.7704965,34.530092 28.3804965,35.960092 28.0404965,37.390092 C27.3104965,40.390092 26.3404965,43.360092 25.8304965,46.400092 C25.1604965,50.370092 27.4704965,52.900092 31.5004965,53.160092 C33.9204965,53.320092 36.0804965,52.470092 38.3204965,51.740092 C39.8404965,51.250092 40.2704965,50.320092 40.2704965,48.840092 C39.6104965,49.010092 39.0104965,49.190092 38.4004965,49.310092 C35.0804965,50.000092 33.8204965,48.850092 34.4704965,45.530092 C34.9304965,43.200092 35.6804965,40.930092 36.2104965,38.610092 C36.7204965,36.370092 37.3004965,34.130092 37.5104965,31.850092 C37.7604965,29.150092 36.0404965,27.170092 33.4104965,26.540092 C30.5204965,25.850092 27.9104965,26.820092 25.2304965,27.660092 C23.7204965,28.140092 23.0804965,29.000092 23.1304965,30.570092 L23.1404965,30.590092 Z M35.9404965,22.0901277 C38.7604965,22.080092 40.9604965,19.990092 40.9404965,17.330092 C40.9304965,14.700092 38.6804965,12.610092 35.8804965,12.610092 C33.0804965,12.610092 30.8204965,14.710092 30.8104633,17.330092 C30.8004965,20.010092 33.0504965,22.100092 35.9404965,22.0901277 Z" id="Shape"></path>
                </g>
            </g>
        </g>
    </g>
</svg>