<?xml version="1.0" encoding="UTF-8"?>
<svg width="294.212913px" height="198.700963px" viewBox="0 0 294.212913 198.700963" version="1.1" xmlns="http://www.w3.org/2000/svg" xmlns:xlink="http://www.w3.org/1999/xlink">
    <title>health-family</title>
    <defs>
        <linearGradient x1="50.0012044%" y1="92.9995306%" x2="50.0012044%" y2="-1.98239477%" id="linearGradient-1">
            <stop stop-color="#E6E6E6" offset="0%"></stop>
            <stop stop-color="#FFFFFF" offset="65%"></stop>
        </linearGradient>
        <linearGradient x1="25.1110664%" y1="28.1332171%" x2="69.1947875%" y2="79.7015312%" id="linearGradient-2">
            <stop stop-color="#FFFFFF" offset="10%"></stop>
            <stop stop-color="#E3E3E3" offset="65%"></stop>
        </linearGradient>
        <linearGradient x1="49.9922216%" y1="0.0017687046%" x2="49.9922216%" y2="111.632868%" id="linearGradient-3">
            <stop stop-color="#FF4E9A" offset="0%"></stop>
            <stop stop-color="#FE1A13" offset="66%"></stop>
        </linearGradient>
    </defs>
    <g id="health-family" stroke="none" stroke-width="1" fill="none" fill-rule="evenodd">
        <path d="M32.24,75.5809625 C23.72,25.6809625 101,-30.5290375 158.09,19.5309625 C158.09,19.5309625 175.66,12.5009625 202.88,29.1909625 C231.9,46.9809625 227.47,66.0809625 227.47,66.0809625 C321.45,69.5909625 310.03,198.700963 231.56,198.700963 L50.94,198.700963 C50.94,198.700963 0,182.010963 0,130.190963 C0,95.0609625 32.29,75.8809625 32.24,75.5809625 Z" id="Path" stroke="url(#linearGradient-2)" stroke-width="7" fill="url(#linearGradient-1)" fill-rule="nonzero"></path>
        <g id="Group" transform="translate(105.370000, 92.260963)" fill="#FF250A" fill-rule="nonzero">
            <polygon id="Path" points="3.14 0.43 3.14 6.91 6.43 6.91 6.43 0.43 9.57 0.43 9.57 16.61 6.43 16.61 6.43 9.84 3.14 9.84 3.14 16.61 -5.68434189e-14 16.61 -5.68434189e-14 0.43"></polygon>
            <polygon id="Path" points="19.19 9.51 15.49 9.51 15.49 13.88 19.67 13.88 19.67 16.62 12.35 16.62 12.35 0.44 19.38 0.44 19.38 3.18 15.49 3.18 15.49 6.9 19.19 6.9 19.19 9.52"></polygon>
            <path d="M24.38,12.92 L23.66,16.62 L20.61,16.62 L24.11,0.44 L27.88,0.44 L31.02,16.62 L27.97,16.62 L27.27,12.92 L24.37,12.92 L24.38,12.92 Z M27,10.47 L26.47,7.09 C26.3,6.11 26.09,4.5 25.94,3.42 L25.87,3.42 C25.7,4.5 25.46,6.18 25.29,7.12 L24.69,10.48 L26.99,10.48 L27,10.47 Z" id="Shape"></path>
            <polygon id="Path" points="32.8 0.43 35.94 0.43 35.94 13.94 40.09 13.94 40.09 16.6 32.79 16.6 32.79 0.42"></polygon>
            <polygon id="Path" points="42.35 3.34 39.49 3.34 39.49 0.44 48.37 0.44 48.37 3.34 45.49 3.34 45.49 16.61 42.35 16.61"></polygon>
            <polygon id="Path" points="53.18 0.43 53.18 6.91 56.47 6.91 56.47 0.43 59.61 0.43 59.61 16.61 56.47 16.61 56.47 9.84 53.18 9.84 53.18 16.61 50.04 16.61 50.04 0.43"></polygon>
            <path d="M71.18,16.61 L71.01,15.46 L70.96,15.46 C70.31,16.37 69.4,16.8 68.37,16.8 C66.59,16.8 65.27,15.31 65.27,13.22 C65.27,10.15 67.98,8.88 70.65,8.85 L70.65,8.59 C70.65,7.68 70.1,7.01 68.99,7.01 C68.05,7.01 67.29,7.25 66.59,7.68 L66.01,5.57 C66.66,5.19 68.03,4.68 69.66,4.68 C73.24,4.68 73.81,7.18 73.81,9.55 L73.81,13.92 C73.81,14.86 73.86,15.82 74,16.61 L71.17,16.61 L71.18,16.61 Z M70.75,10.9 C69.69,10.92 68.25,11.26 68.25,12.89 C68.25,14.07 68.9,14.5 69.38,14.5 C69.88,14.5 70.46,14.19 70.68,13.49 C70.73,13.32 70.75,13.13 70.75,12.94 L70.75,10.9 L70.75,10.9 Z" id="Shape"></path>
            <path d="M76.05,8.4 C76.05,7.1 75.98,5.98 75.95,4.87 L78.66,4.87 L78.8,6.21 L78.85,6.21 C79.47,5.27 80.48,4.67 81.71,4.67 C83.94,4.67 84.83,6.45 84.83,9.06 L84.83,16.6 L81.69,16.6 L81.69,9.26 C81.69,8.25 81.45,7.32 80.54,7.32 C80.01,7.32 79.58,7.68 79.36,8.38 C79.26,8.62 79.19,9 79.19,9.46 L79.19,16.61 L76.05,16.61 L76.05,8.4 L76.05,8.4 Z" id="Path"></path>
            <path d="M95.56,0 L95.56,13.13 C95.56,14.26 95.61,15.53 95.66,16.61 L92.95,16.61 L92.78,15.29 L92.73,15.29 C92.3,16.11 91.36,16.8 90.28,16.8 C87.78,16.8 86.63,14.04 86.63,10.75 C86.63,6.67 88.41,4.68 90.4,4.68 C91.43,4.68 92.08,5.18 92.37,5.86 L92.42,5.86 L92.42,0 L95.56,0 L95.56,0 Z M92.42,9.38 C92.42,9.16 92.42,8.92 92.4,8.68 C92.28,7.96 91.9,7.31 91.27,7.31 C90.17,7.31 89.76,8.92 89.76,10.81 C89.76,13.04 90.36,14.22 91.25,14.22 C91.63,14.22 92.09,14 92.33,13.19 C92.4,13.02 92.43,12.76 92.43,12.47 L92.43,9.37 L92.42,9.38 Z" id="Shape"></path>
            <polygon id="Path" points="101.87 0.43 108.9 0.43 108.9 3.17 105.01 3.17 105.01 7.32 108.66 7.32 108.66 9.94 105.01 9.94 105.01 16.61 101.87 16.61"></polygon>
            <path d="M115.72,16.61 L115.55,15.46 L115.5,15.46 C114.85,16.37 113.94,16.8 112.91,16.8 C111.13,16.8 109.81,15.31 109.81,13.22 C109.81,10.15 112.52,8.88 115.19,8.85 L115.19,8.59 C115.19,7.68 114.64,7.01 113.53,7.01 C112.59,7.01 111.83,7.25 111.13,7.68 L110.55,5.57 C111.2,5.19 112.57,4.68 114.2,4.68 C117.78,4.68 118.35,7.18 118.35,9.55 L118.35,13.92 C118.35,14.86 118.4,15.82 118.54,16.61 L115.71,16.61 L115.72,16.61 Z M115.29,10.9 C114.23,10.92 112.79,11.26 112.79,12.89 C112.79,14.07 113.44,14.5 113.92,14.5 C114.42,14.5 115,14.19 115.22,13.49 C115.27,13.32 115.29,13.13 115.29,12.94 L115.29,10.9 L115.29,10.9 Z" id="Shape"></path>
            <path d="M120.59,8.4 C120.59,7.1 120.52,5.98 120.49,4.87 L123.23,4.87 L123.37,6.24 L123.42,6.24 C124.02,5.35 125,4.68 126.23,4.68 C127.55,4.68 128.39,5.28 128.8,6.26 L128.85,6.26 C129.14,5.8 129.57,5.37 130.03,5.08 C130.51,4.82 131.09,4.67 131.69,4.67 C133.78,4.67 134.71,6.33 134.71,9.16 L134.71,16.6 L131.59,16.6 L131.59,9.69 C131.59,8.35 131.45,7.27 130.49,7.27 C129.94,7.27 129.53,7.65 129.31,8.35 C129.26,8.52 129.21,8.85 129.21,9.17 L129.21,16.61 L126.09,16.61 L126.09,9.24 C126.09,8.4 125.99,7.27 125.01,7.27 C124.53,7.27 124.05,7.63 123.83,8.33 C123.76,8.55 123.71,8.88 123.71,9.22 L123.71,16.61 L120.59,16.61 L120.59,8.4 L120.59,8.4 Z" id="Path"></path>
            <path d="M140.06,1.75 C140.08,2.76 139.36,3.45 138.4,3.45 C137.54,3.45 136.82,2.75 136.84,1.75 C136.82,0.69 137.58,0.05 138.45,0.05 C139.36,0.05 140.06,0.7 140.06,1.75 Z M136.92,16.61 L136.92,4.87 L140.06,4.87 L140.06,16.61 L136.92,16.61 Z" id="Shape"></path>
            <polygon id="Path" points="142.26 1.13686838e-13 145.4 1.13686838e-13 145.4 16.61 142.26 16.61"></polygon>
            <path d="M150.13,4.88 L151.28,10.98 C151.4,11.68 151.5,12.32 151.59,12.95 L151.64,12.95 C151.74,12.35 151.83,11.68 151.93,11.03 L152.91,4.89 L155.98,4.89 L153.58,13.94 C153,16.15 152.24,18.43 150.96,19.94 C149.98,21.09 148.78,21.64 148.3,21.79 L147.34,19.08 C147.89,18.89 148.42,18.53 148.9,18.1 C149.33,17.69 149.67,17.21 149.88,16.71 C149.98,16.49 150.05,16.37 150.05,16.21 C150.05,16.07 150,15.92 149.95,15.78 L146.73,4.91 L150.11,4.91 L150.13,4.88 Z" id="Path"></path>
        </g>
        <g id="af" transform="translate(23.763994, 84.179848)" fill="url(#linearGradient-3)" fill-rule="nonzero">
            <path d="M34.5560059,9.87111448 C35.3760059,8.90111448 36.1460059,7.98111448 36.9260059,7.07111448 C39.1860059,4.45111448 41.8660059,2.38111448 45.0960059,1.10111448 C49.4960059,-0.62888552 53.8360059,-0.23888552 58.0660059,1.70111448 C64.8960059,4.84111448 68.4260059,10.2911145 69.0360059,17.6911145 C69.4360059,22.5111145 68.0060059,26.9011145 65.6160059,31.0211145 C63.3260059,34.9711145 60.4460059,38.4711145 57.1660059,41.6211145 C50.5560059,47.9811145 43.8560059,54.2411145 37.1960059,60.5511145 C36.3360059,61.3611145 35.4760059,62.1611145 34.5660059,63.0111145 C34.3260059,62.8011145 34.0960059,62.6211145 33.8860059,62.4211145 C26.8560059,55.7911145 19.7960059,49.2011145 12.8160059,42.5311145 C9.23600592,39.1111145 6.00600592,35.3711145 3.49600592,31.0611145 C1.30600592,27.3111145 -0.103994076,23.3011145 0.00600592441,18.9111145 C0.166005924,12.5911145 2.45600592,7.26111448 7.78600592,3.55111448 C11.1360059,1.22111448 14.8460059,-0.12888552 18.9960059,0.0411144805 C23.0260059,0.20111448 26.4160059,1.91111448 29.4760059,4.41111448 C31.2460059,5.86111448 32.6360059,7.65111448 34.1060059,9.37111448 C34.2360059,9.52111448 34.3760059,9.67111448 34.5560059,9.88111448 L34.5560059,9.87111448 Z" id="Path"></path>
        </g>
    </g>
</svg>