<?xml version="1.0" encoding="UTF-8"?>
<svg width="449.956945px" height="430.641499px" viewBox="0 0 449.956945 430.641499" version="1.1" xmlns="http://www.w3.org/2000/svg" xmlns:xlink="http://www.w3.org/1999/xlink">
    <title>lungs-outline-</title>
    <g id="lungs-outline-" stroke="none" stroke-width="1" fill="none" fill-rule="evenodd" opacity="0.74">
        <g id="c" fill="#FFFFFF" fill-rule="nonzero">
            <path d="M196.034529,129.084063 C197.914529,124.484063 201.204529,119.954063 201.434529,115.264063 C202.514529,93.3140632 203.144529,71.3240632 203.134529,49.3540632 C203.134529,36.3140632 201.614529,23.2740632 200.824529,10.2340632 C200.714529,8.46406322 200.234529,6.25406322 201.064529,5.00406322 C202.394529,2.99406322 204.674529,0.304063223 206.564529,0.294063223 C208.784529,0.284063223 211.644529,2.39406322 213.044529,4.40406322 C214.344529,6.26406322 214.374529,9.19406322 214.464529,11.6740632 C215.474529,39.3940632 216.594529,67.1040632 217.204529,94.8340632 C217.374529,102.294063 216.374529,109.864063 215.164529,117.264063 C212.894529,131.134063 204.774529,141.384063 193.434529,149.114063 C187.924529,152.874063 183.524529,150.604063 182.064529,144.084063 C179.084529,130.834063 176.434529,117.494063 172.794529,104.424063 C169.664529,93.1840632 162.944529,84.5740632 150.824529,81.7040632 C143.184529,79.8940632 136.234529,82.3640632 129.834529,86.1640632 C107.884529,99.1940632 90.824529,117.414063 76.304529,138.064063 C49.744529,175.844063 31.984529,217.614063 21.944529,262.594063 C12.974529,302.794063 11.314529,343.424063 16.884529,384.274063 C17.464529,388.504063 18.464529,392.744063 19.814529,396.804063 C24.014529,409.494063 33.244529,415.154063 46.314529,416.664063 C64.164529,418.724063 79.194529,412.134063 93.924529,403.464063 C105.934529,396.394063 117.994529,389.274063 132.054529,386.934063 C138.744529,385.824063 145.514529,385.194063 152.184529,383.984063 C162.864529,382.054063 167.984529,374.684063 170.794529,364.814063 C181.304529,327.864063 185.474529,290.164063 185.474529,251.824063 C185.474529,231.434063 186.394529,211.024063 187.554529,190.664063 C188.494529,174.234063 199.994529,160.014063 214.404529,155.924063 C233.784529,150.424063 250.944529,158.604063 257.794529,177.854063 C260.734529,186.124063 262.234529,195.234063 262.574529,204.034063 C263.404529,226.024063 262.934529,248.064063 263.464529,270.074063 C264.204529,300.834063 269.184529,330.944063 278.354529,360.344063 C278.624529,361.194063 278.844529,362.064063 279.044529,362.934063 C282.404529,377.404063 288.104529,384.234063 302.824529,384.994063 C324.904529,386.134063 343.354529,395.584063 361.554529,406.444063 C374.674529,414.274063 388.524529,418.204063 404.014529,416.594063 C418.564529,415.084063 427.934529,407.814063 431.124529,393.404063 C437.684529,363.714063 437.254529,333.644063 434.574529,303.624063 C431.914529,273.734063 425.144529,244.644063 414.494529,216.574063 C398.354529,174.034063 377.194529,134.524063 343.064529,103.344063 C336.374529,97.2340632 328.904529,91.8740632 321.294529,86.9140632 C300.764529,73.5340632 282.964529,85.0240632 277.304529,104.154063 C273.604529,116.634063 271.244529,129.514063 268.314529,142.224063 C266.644529,149.464063 261.994529,151.704063 255.814529,147.694063 C243.834529,139.904063 236.134529,129.204063 234.424529,114.654063 C230.304529,79.5640632 233.484529,44.5840632 235.894529,9.58406322 C235.954529,8.69406322 236.134529,7.81406322 236.244529,6.92406322 C236.764529,2.64406322 238.824529,-0.355936777 243.454529,0.0340632231 C248.124529,0.424063223 249.634529,3.83406322 249.394529,8.07406322 C248.864529,17.3640632 247.884529,26.6440632 247.684529,35.9440632 C247.184529,58.4840632 246.574529,81.0340632 246.984529,103.554063 C247.114529,110.784063 250.194529,117.994063 252.284529,125.114063 C252.664529,126.404063 254.734529,127.194063 256.024529,128.214063 C256.674529,126.834063 257.524529,125.514063 257.934529,124.064063 C260.734529,114.274063 262.474529,104.054063 266.364529,94.7340632 C277.934529,66.9440632 305.384529,59.7740632 331.574529,77.0740632 C359.804529,95.7240632 380.494529,121.244063 397.704529,149.904063 C418.694529,184.854063 433.414529,222.334063 441.904529,262.174063 C450.554529,302.784063 452.334529,343.774063 446.764529,384.964063 C445.884529,391.464063 444.164529,397.994063 441.844529,404.134063 C435.324529,421.394063 421.574529,428.404063 404.024529,430.264063 C385.484529,432.224063 369.284529,426.334063 353.424529,417.614063 C342.204529,411.444063 330.594529,405.834063 318.684529,401.164063 C312.714529,398.824063 305.694529,399.204063 299.164529,398.224063 C281.494529,395.594063 270.434529,385.624063 266.214529,368.214063 C262.554529,353.104063 258.644529,338.044063 255.404529,322.844063 C250.454529,299.614063 249.994529,275.954063 249.604529,252.324063 C249.304529,234.424063 249.354529,216.524063 248.644529,198.644063 C248.424529,193.054063 246.864529,187.314063 244.824529,182.064063 C241.494529,173.484063 235.404529,167.654063 225.464529,167.814063 C215.134529,167.974063 207.124529,172.974063 203.834529,182.514063 C201.154529,190.294063 200.124529,198.894063 199.814529,207.184063 C199.004529,229.184063 199.174529,251.214063 198.584529,273.224063 C197.684529,307.024063 192.304529,340.144063 182.504529,372.514063 C178.384529,386.114063 168.984529,394.214063 155.414529,397.234063 C147.244529,399.044063 138.314529,398.444063 130.684529,401.404063 C117.444529,406.544063 104.684529,413.124063 92.214529,419.984063 C75.214529,429.334063 57.584529,432.674063 38.464529,429.024063 C18.714529,425.254063 8.74452901,412.234063 5.01452901,393.754063 C-0.505470987,366.364063 -0.945470987,338.624063 1.18452901,310.864063 C4.19452901,271.504063 13.144529,233.494063 28.564529,197.134063 C44.604529,159.304063 64.844529,124.114063 95.114529,95.6240632 C105.934529,85.4440632 117.274529,75.7140632 131.544529,70.5640632 C152.264529,63.0940632 173.124529,71.3740632 182.104529,91.5340632 C186.494529,101.394063 188.664529,112.244063 191.814529,122.664063 C192.404529,124.614063 192.894529,126.594063 193.424529,128.554063 C194.294529,128.734063 195.174529,128.914063 196.044529,129.094063 L196.034529,129.084063 Z" id="Path"></path>
        </g>
    </g>
</svg>