<?xml version="1.0" encoding="UTF-8"?>
<svg width="449.956945px" height="509.103263px" viewBox="0 0 449.956945 509.103263" version="1.1" xmlns="http://www.w3.org/2000/svg" xmlns:xlink="http://www.w3.org/1999/xlink">
    <title>lungs-outline</title>
    <defs>
        <linearGradient x1="45.6630787%" y1="7.24595502%" x2="56.627634%" y2="100.625368%" id="linearGradient-1">
            <stop stop-color="#FCFCFC" offset="2%"></stop>
            <stop stop-color="#C6E4FA" offset="22%"></stop>
            <stop stop-color="#7DC4F7" offset="50%"></stop>
            <stop stop-color="#50B0F5" offset="71%"></stop>
            <stop stop-color="#3FA9F5" offset="81%"></stop>
        </linearGradient>
        <linearGradient x1="94.4560848%" y1="39.4586703%" x2="-38.9719682%" y2="57.0486462%" id="linearGradient-2">
            <stop stop-color="#FF1B9B" offset="10%"></stop>
            <stop stop-color="#EE27A2" offset="16%"></stop>
            <stop stop-color="#B055BF" offset="38%"></stop>
            <stop stop-color="#7F79D6" offset="58%"></stop>
            <stop stop-color="#5C93E7" offset="76%"></stop>
            <stop stop-color="#46A3F1" offset="91%"></stop>
            <stop stop-color="#3FA9F5" offset="100%"></stop>
        </linearGradient>
        <linearGradient x1="-9.63438924%" y1="33.2309138%" x2="86.3095335%" y2="50.9252913%" id="linearGradient-3">
            <stop stop-color="#FF1B9B" offset="10%"></stop>
            <stop stop-color="#EE27A2" offset="16%"></stop>
            <stop stop-color="#B055BF" offset="38%"></stop>
            <stop stop-color="#7F79D6" offset="58%"></stop>
            <stop stop-color="#5C93E7" offset="76%"></stop>
            <stop stop-color="#46A3F1" offset="91%"></stop>
            <stop stop-color="#3FA9F5" offset="100%"></stop>
        </linearGradient>
        <linearGradient x1="47.9342503%" y1="-10.5898355%" x2="52.3056239%" y2="102.832227%" id="linearGradient-4">
            <stop stop-color="#FCFCFC" offset="21%"></stop>
            <stop stop-color="#C6E4FA" offset="32%"></stop>
            <stop stop-color="#7DC4F7" offset="49%"></stop>
            <stop stop-color="#50B0F5" offset="62%"></stop>
            <stop stop-color="#3FA9F5" offset="68%"></stop>
        </linearGradient>
    </defs>
    <g id="lungs-outline" stroke="none" stroke-width="1" fill="none" fill-rule="evenodd">
        <g id="Group" fill-rule="nonzero">
            <g>
                <g transform="translate(0.000000, 78.461764)" fill="#FFFFFF" id="c" opacity="0.74">
                    <g>
                        <path d="M196.034529,129.084063 C197.914529,124.484063 201.204529,119.954063 201.434529,115.264063 C202.514529,93.3140632 203.144529,71.3240632 203.134529,49.3540632 C203.134529,36.3140632 201.614529,23.2740632 200.824529,10.2340632 C200.714529,8.46406322 200.234529,6.25406322 201.064529,5.00406322 C202.394529,2.99406322 204.674529,0.304063223 206.564529,0.294063223 C208.784529,0.284063223 211.644529,2.39406322 213.044529,4.40406322 C214.344529,6.26406322 214.374529,9.19406322 214.464529,11.6740632 C215.474529,39.3940632 216.594529,67.1040632 217.204529,94.8340632 C217.374529,102.294063 216.374529,109.864063 215.164529,117.264063 C212.894529,131.134063 204.774529,141.384063 193.434529,149.114063 C187.924529,152.874063 183.524529,150.604063 182.064529,144.084063 C179.084529,130.834063 176.434529,117.494063 172.794529,104.424063 C169.664529,93.1840632 162.944529,84.5740632 150.824529,81.7040632 C143.184529,79.8940632 136.234529,82.3640632 129.834529,86.1640632 C107.884529,99.1940632 90.824529,117.414063 76.304529,138.064063 C49.744529,175.844063 31.984529,217.614063 21.944529,262.594063 C12.974529,302.794063 11.314529,343.424063 16.884529,384.274063 C17.464529,388.504063 18.464529,392.744063 19.814529,396.804063 C24.014529,409.494063 33.244529,415.154063 46.314529,416.664063 C64.164529,418.724063 79.194529,412.134063 93.924529,403.464063 C105.934529,396.394063 117.994529,389.274063 132.054529,386.934063 C138.744529,385.824063 145.514529,385.194063 152.184529,383.984063 C162.864529,382.054063 167.984529,374.684063 170.794529,364.814063 C181.304529,327.864063 185.474529,290.164063 185.474529,251.824063 C185.474529,231.434063 186.394529,211.024063 187.554529,190.664063 C188.494529,174.234063 199.994529,160.014063 214.404529,155.924063 C233.784529,150.424063 250.944529,158.604063 257.794529,177.854063 C260.734529,186.124063 262.234529,195.234063 262.574529,204.034063 C263.404529,226.024063 262.934529,248.064063 263.464529,270.074063 C264.204529,300.834063 269.184529,330.944063 278.354529,360.344063 C278.624529,361.194063 278.844529,362.064063 279.044529,362.934063 C282.404529,377.404063 288.104529,384.234063 302.824529,384.994063 C324.904529,386.134063 343.354529,395.584063 361.554529,406.444063 C374.674529,414.274063 388.524529,418.204063 404.014529,416.594063 C418.564529,415.084063 427.934529,407.814063 431.124529,393.404063 C437.684529,363.714063 437.254529,333.644063 434.574529,303.624063 C431.914529,273.734063 425.144529,244.644063 414.494529,216.574063 C398.354529,174.034063 377.194529,134.524063 343.064529,103.344063 C336.374529,97.2340632 328.904529,91.8740632 321.294529,86.9140632 C300.764529,73.5340632 282.964529,85.0240632 277.304529,104.154063 C273.604529,116.634063 271.244529,129.514063 268.314529,142.224063 C266.644529,149.464063 261.994529,151.704063 255.814529,147.694063 C243.834529,139.904063 236.134529,129.204063 234.424529,114.654063 C230.304529,79.5640632 233.484529,44.5840632 235.894529,9.58406322 C235.954529,8.69406322 236.134529,7.81406322 236.244529,6.92406322 C236.764529,2.64406322 238.824529,-0.355936777 243.454529,0.0340632231 C248.124529,0.424063223 249.634529,3.83406322 249.394529,8.07406322 C248.864529,17.3640632 247.884529,26.6440632 247.684529,35.9440632 C247.184529,58.4840632 246.574529,81.0340632 246.984529,103.554063 C247.114529,110.784063 250.194529,117.994063 252.284529,125.114063 C252.664529,126.404063 254.734529,127.194063 256.024529,128.214063 C256.674529,126.834063 257.524529,125.514063 257.934529,124.064063 C260.734529,114.274063 262.474529,104.054063 266.364529,94.7340632 C277.934529,66.9440632 305.384529,59.7740632 331.574529,77.0740632 C359.804529,95.7240632 380.494529,121.244063 397.704529,149.904063 C418.694529,184.854063 433.414529,222.334063 441.904529,262.174063 C450.554529,302.784063 452.334529,343.774063 446.764529,384.964063 C445.884529,391.464063 444.164529,397.994063 441.844529,404.134063 C435.324529,421.394063 421.574529,428.404063 404.024529,430.264063 C385.484529,432.224063 369.284529,426.334063 353.424529,417.614063 C342.204529,411.444063 330.594529,405.834063 318.684529,401.164063 C312.714529,398.824063 305.694529,399.204063 299.164529,398.224063 C281.494529,395.594063 270.434529,385.624063 266.214529,368.214063 C262.554529,353.104063 258.644529,338.044063 255.404529,322.844063 C250.454529,299.614063 249.994529,275.954063 249.604529,252.324063 C249.304529,234.424063 249.354529,216.524063 248.644529,198.644063 C248.424529,193.054063 246.864529,187.314063 244.824529,182.064063 C241.494529,173.484063 235.404529,167.654063 225.464529,167.814063 C215.134529,167.974063 207.124529,172.974063 203.834529,182.514063 C201.154529,190.294063 200.124529,198.894063 199.814529,207.184063 C199.004529,229.184063 199.174529,251.214063 198.584529,273.224063 C197.684529,307.024063 192.304529,340.144063 182.504529,372.514063 C178.384529,386.114063 168.984529,394.214063 155.414529,397.234063 C147.244529,399.044063 138.314529,398.444063 130.684529,401.404063 C117.444529,406.544063 104.684529,413.124063 92.214529,419.984063 C75.214529,429.334063 57.584529,432.674063 38.464529,429.024063 C18.714529,425.254063 8.74452901,412.234063 5.01452901,393.754063 C-0.505470987,366.364063 -0.945470987,338.624063 1.18452901,310.864063 C4.19452901,271.504063 13.144529,233.494063 28.564529,197.134063 C44.604529,159.304063 64.844529,124.114063 95.114529,95.6240632 C105.934529,85.4440632 117.274529,75.7140632 131.544529,70.5640632 C152.264529,63.0940632 173.124529,71.3740632 182.104529,91.5340632 C186.494529,101.394063 188.664529,112.244063 191.814529,122.664063 C192.404529,124.614063 192.894529,126.594063 193.424529,128.554063 C194.294529,128.734063 195.174529,128.914063 196.044529,129.094063 L196.034529,129.084063 Z" id="Path"></path>
                    </g>
                </g>
                <path d="M288.154529,54.3758271 C274.944529,41.1358271 245.284529,40.0758271 232.034529,67.9858271 C228.124529,76.2258271 226.844529,84.7258271 228.704529,93.4858271 C229.004529,94.8758271 228.634529,96.4758271 228.554529,98.5658271 C222.264529,93.2958271 225.234529,71.1058271 232.824529,58.8758271 C244.624529,39.8758271 268.344529,32.9658271 288.154529,47.3058271 C288.204529,45.2658271 288.254529,43.0358271 288.294529,40.8058271 L289.774529,40.4558271 C292.354529,46.3758271 295.144529,52.1958271 297.414529,58.2758271 C298.424529,60.9758271 296.774529,62.4858271 294.074529,61.8258271 C290.034529,60.8458271 286.044529,59.7158271 281.994529,58.7658271 C279.834529,58.2658271 279.234529,56.9358271 279.784529,54.6758271 C280.424529,52.0358271 282.004529,53.0058271 283.404529,53.3058271 C284.754529,53.5858271 286.084529,53.9058271 288.154529,54.3758271 L288.154529,54.3758271 Z" id="Path" fill="#FF1B9B"></path>
                <path d="M172.574529,41.8158271 C195.994529,60.5058271 212.784529,85.6358271 221.574529,117.875827 C230.294529,149.865827 228.314529,178.595827 217.574529,204.265827 C218.114529,204.645827 218.644529,205.015827 219.184529,205.395827 C220.164529,204.035827 221.384529,202.885827 222.074529,201.275827 C240.284529,158.785827 229.224529,97.9358271 195.614529,56.8758271 C189.664529,49.6158271 183.004529,43.3458271 176.644529,36.5958271 C177.124529,36.7258271 177.804529,37.0958271 178.384529,37.0158271 C179.664529,36.8458271 180.884529,36.4558271 182.134529,36.1558271 C180.944529,34.6258271 179.834529,32.2458271 178.564529,31.7258271 C172.964529,29.4358271 167.314529,27.6458271 161.684529,25.7958271 C160.884529,25.5358271 159.454529,25.5858271 159.374529,26.0458271 C159.214529,27.0558271 159.434529,28.7058271 160.014529,29.5958271 C164.084529,35.8058271 168.254529,41.9258271 172.494529,47.9658271 C173.004529,48.6858271 174.114529,48.7458271 174.954529,49.1158271 C174.934529,48.0658271 175.194529,46.9158271 174.844529,45.9958271 C174.294529,44.5258271 173.344529,43.1958271 172.564529,41.8158271 L172.574529,41.8158271 Z" id="Path" fill="#FF1B9B"></path>
                <path d="M106.684529,364.705827 C106.884529,363.405827 106.874529,362.005827 107.374529,360.825827 C107.684529,360.085827 108.754529,359.655827 109.474529,359.095827 C110.054529,359.895827 111.124529,360.745827 111.124529,361.495827 C111.084529,367.795827 110.924529,374.085827 110.594529,380.355827 C110.544529,381.245827 109.604529,382.295827 108.724529,382.705827 C108.324529,382.895827 106.854529,381.875827 106.234529,381.145827 C101.904529,376.045827 97.524529,370.965827 93.534529,365.655827 C92.624529,364.445827 93.204529,362.375827 93.104529,360.695827 C94.564529,361.445827 96.074529,362.135827 97.474529,362.985827 C98.104529,363.365827 98.524529,364.055827 98.914529,364.475827 C97.334529,356.255827 95.104529,348.055827 94.294529,339.855827 C89.764529,293.535827 121.864529,253.195827 170.274529,244.015827 C172.114529,243.665827 174.154529,243.955827 176.094529,243.945827 C176.364529,244.535827 176.634529,245.125827 176.904529,245.715827 C147.914529,251.465827 125.554529,265.235827 111.574529,288.555827 C97.494529,312.065827 96.484529,337.655827 106.684529,364.685827 L106.684529,364.705827 Z" id="Path" fill="url(#linearGradient-1)"></path>
                <path d="M144.634529,376.175827 C145.294529,376.345827 145.964529,376.515827 146.624529,376.675827 C145.394529,384.565827 144.894529,392.655827 142.804529,400.315827 C135.564529,426.815827 108.164529,438.615827 84.284529,425.935827 C64.854529,415.625827 56.304529,392.655827 63.854529,370.995827 C64.974529,367.795827 66.704529,364.585827 63.294529,361.545827 C54.924529,376.105827 55.764529,400.125827 65.004529,416.125827 C74.624529,432.775827 92.614529,441.915827 110.494529,439.245827 C128.334529,436.575827 141.494529,423.805827 146.374529,403.885827 C147.994529,397.275827 148.754529,390.465827 149.764529,384.555827 C152.514529,384.265827 155.574529,384.745827 157.374529,383.445827 C158.364529,382.725827 157.634529,378.865827 156.964529,376.645827 C155.274529,371.025827 153.474529,365.405827 151.124529,360.055827 C150.194529,357.945827 147.894529,355.635827 145.824529,355.205827 C144.594529,354.945827 141.874529,357.875827 141.094529,359.865827 C138.454529,366.655827 136.164529,373.605827 134.264529,380.635827 C133.834529,382.235827 135.474529,384.385827 136.154529,386.275827 C138.184529,385.305827 140.834529,384.835827 142.094529,383.245827 C143.574529,381.395827 143.844529,378.575827 144.644529,376.165827 L144.634529,376.175827 Z" id="Path" fill="url(#linearGradient-2)"></path>
                <path d="M312.524529,381.545827 C313.614529,383.865827 314.204529,386.705827 315.954529,388.355827 C317.464529,389.765827 320.304529,389.825827 322.564529,390.475827 C323.094529,388.425827 324.604529,385.965827 323.974529,384.405827 C321.224529,377.545827 318.074529,370.825827 314.584529,364.325827 C313.554529,362.425827 310.374529,359.875827 309.094529,360.335827 C306.954529,361.105827 304.754529,363.845827 303.994529,366.145827 C302.064529,371.985827 300.734529,378.015827 299.534529,384.035827 C299.064529,386.405827 298.694529,390.465827 299.814529,391.035827 C301.854529,392.075827 305.044529,391.085827 307.984529,390.935827 C309.674529,396.805827 311.184529,403.635827 313.584529,410.105827 C320.824529,429.635827 336.074529,440.525827 355.244529,440.345827 C374.454529,440.165827 392.554529,427.905827 400.994529,409.345827 C409.114529,391.515827 407.494529,366.865827 397.124529,353.365827 C393.834529,357.015827 395.994529,360.015827 397.514529,363.095827 C407.764529,383.965827 401.104529,408.795827 381.604529,422.485827 C357.634529,439.315827 327.404529,431.735827 316.984529,405.875827 C313.974529,398.395827 312.604529,390.225827 310.474529,382.375827 C311.164529,382.095827 311.844529,381.815827 312.534529,381.535827 L312.524529,381.545827 Z" id="Path" fill="url(#linearGradient-3)"></path>
                <path d="M297.304529,242.065827 C299.174529,241.475827 301.044529,240.345827 302.904529,240.365565 C321.194529,240.575827 337.724529,246.125827 351.724529,257.755827 C374.574529,276.745827 382.864529,301.535827 378.864529,330.895827 C378.724529,331.885827 378.584529,332.875827 379.024529,334.285827 C380.314529,332.795827 381.534529,331.235827 382.924529,329.845827 C384.184529,328.595827 385.624529,327.525827 386.984529,326.385827 L388.234529,327.725827 C382.884529,333.755827 377.534529,339.775827 371.344529,346.745827 C368.984529,341.005827 366.884529,336.635827 365.524529,332.045827 C365.214529,331.015827 367.444529,329.195827 368.954529,327.115827 C370.534529,330.485827 371.544529,332.645827 372.554529,334.805827 C377.314529,311.065827 372.684529,289.575827 357.394529,271.205827 C342.094529,252.825827 321.784529,244.075827 297.674529,243.795827 C297.554529,243.215827 297.434529,242.635827 297.314529,242.065827 L297.304529,242.065827 Z" id="Path" fill="url(#linearGradient-4)"></path>
                <path d="M323.784529,8.70582713 C322.634529,7.69582713 321.724529,6.31582713 320.314529,5.72582713 C306.344529,-0.0641728695 291.284529,-1.62417287 275.374529,1.78582713 C249.404529,7.34582713 231.844529,21.6058271 221.534529,42.9658271 C221.184529,43.6858271 220.854529,44.4158271 219.874529,45.2358271 C219.564529,43.7958271 219.354529,42.3358271 218.934529,40.9358271 C218.554529,39.6758271 217.934529,38.4758271 217.424529,37.2558271 L215.864529,37.7658271 C217.184529,43.6158271 218.504529,49.4658271 220.034529,56.2358271 C224.434529,53.0758271 228.004529,50.7758271 231.134529,48.0758271 C231.834529,47.4658271 230.974529,45.5058271 230.774529,43.5958271 C228.044529,45.3858271 226.294529,46.5358271 224.544529,47.6858271 C231.724529,29.9258271 245.004529,16.7358271 264.954529,9.14582713 C284.914529,1.54582713 304.304529,2.15582713 322.714529,9.77582713 C323.064529,9.41582713 323.424529,9.06582713 323.774529,8.70582713 L323.784529,8.70582713 Z" id="Path" fill="#FFFFFF"></path>
            </g>
        </g>
    </g>
</svg>