<?xml version="1.0" encoding="UTF-8"?>
<svg width="294.212913px" height="198.700963px" viewBox="0 0 294.212913 198.700963" version="1.1" xmlns="http://www.w3.org/2000/svg" xmlns:xlink="http://www.w3.org/1999/xlink">
    <title>map</title>
    <defs>
        <linearGradient x1="50.0012044%" y1="92.9995306%" x2="50.0012044%" y2="-1.98239477%" id="linearGradient-1">
            <stop stop-color="#E6E6E6" offset="0%"></stop>
            <stop stop-color="#FFFFFF" offset="65%"></stop>
        </linearGradient>
        <linearGradient x1="25.1110664%" y1="28.1332171%" x2="69.1947875%" y2="79.7015312%" id="linearGradient-2">
            <stop stop-color="#FFFFFF" offset="10%"></stop>
            <stop stop-color="#E3E3E3" offset="65%"></stop>
        </linearGradient>
    </defs>
    <g id="map" stroke="none" stroke-width="1" fill="none" fill-rule="evenodd">
        <path d="M32.24,75.5809625 C23.72,25.6809625 101,-30.5290375 158.09,19.5309625 C158.09,19.5309625 175.66,12.5009625 202.88,29.1909625 C231.9,46.9809625 227.47,66.0809625 227.47,66.0809625 C321.45,69.5909625 310.03,198.700963 231.56,198.700963 L50.94,198.700963 C50.94,198.700963 0,182.010963 0,130.190963 C0,95.0609625 32.29,75.8809625 32.24,75.5809625 Z" id="Path" stroke="url(#linearGradient-2)" stroke-width="7" fill="url(#linearGradient-1)" fill-rule="nonzero"></path>
        <g id="Group" transform="translate(92.810000, 87.860963)" fill="#FF250A" fill-rule="nonzero">
            <polygon id="Path" points="3.14 0.15 3.14 16.33 -1.13686838e-13 16.33 -1.13686838e-13 0.15"></polygon>
            <path d="M5.94,16.32 L5.94,0.14 L8.82,0.14 L11.32,6.48 C11.8,7.73 12.59,9.82 13.05,11.21 L13.1,11.21 C13,9.51 12.79,6.7 12.79,3.72 L12.79,0.14 L15.55,0.14 L15.55,16.32 L12.67,16.32 L10.2,10.18 C9.67,8.81 8.93,6.77 8.57,5.31 L8.52,5.31 C8.59,6.94 8.71,9.44 8.71,12.68 L8.71,16.33 L5.95,16.33 L5.94,16.32 Z" id="Path"></path>
            <polygon id="Path" points="20.08 3.05 17.22 3.05 17.22 0.15 26.1 0.15 26.1 3.05 23.22 3.05 23.22 16.32 20.08 16.32"></polygon>
            <polygon id="Path" points="34.6 9.22 30.9 9.22 30.9 13.59 35.08 13.59 35.08 16.33 27.76 16.33 27.76 0.15 34.79 0.15 34.79 2.89 30.9 2.89 30.9 6.61 34.6 6.61 34.6 9.23"></polygon>
            <path d="M37.21,0.39 C38.19,0.2 39.44,0.08 40.64,0.08 C42.37,0.08 43.9,0.32 44.96,1.28 C45.94,2.17 46.23,3.25 46.23,4.64 C46.23,6.37 45.39,7.93 43.73,8.7 L43.73,8.75 C44.83,9.18 45.39,10.21 45.7,11.94 C46.01,13.74 46.44,15.73 46.73,16.33 L43.44,16.33 C43.25,15.87 42.89,14.24 42.65,12.47 C42.36,10.45 41.86,9.88 40.8,9.88 L40.34,9.88 L40.34,16.34 L37.2,16.34 L37.2,0.4 L37.21,0.39 Z M40.35,7.45 L40.9,7.45 C42.27,7.45 43.06,6.35 43.06,4.93 C43.06,3.51 42.51,2.58 41.09,2.53 C40.83,2.53 40.51,2.55 40.35,2.63 L40.35,7.45 L40.35,7.45 Z" id="Shape"></path>
            <path d="M51.06,12.63 L50.34,16.33 L47.29,16.33 L50.79,0.15 L54.56,0.15 L57.7,16.33 L54.65,16.33 L53.95,12.63 L51.05,12.63 L51.06,12.63 Z M53.68,10.18 L53.15,6.8 C52.98,5.82 52.77,4.21 52.62,3.13 L52.55,3.13 C52.38,4.21 52.14,5.89 51.97,6.83 L51.37,10.19 L53.67,10.19 L53.68,10.18 Z" id="Shape"></path>
            <path d="M66.86,16.08 C66.4,16.3 65.52,16.46 64.41,16.46 C60.28,16.46 58.31,13.05 58.31,8.47 C58.31,2.37 61.69,0 64.84,0 C65.94,0 66.71,0.22 67.02,0.43 L66.49,3.07 C66.13,2.9 65.72,2.76 65.03,2.76 C63.25,2.76 61.65,4.3 61.65,8.3 C61.65,12.3 63.11,13.68 65.03,13.68 C65.56,13.68 66.16,13.56 66.54,13.44 L66.85,16.08 L66.86,16.08 Z" id="Path"></path>
            <polygon id="Path" points="70.91 3.05 68.05 3.05 68.05 0.15 76.93 0.15 76.93 3.05 74.05 3.05 74.05 16.32 70.91 16.32"></polygon>
            <polygon id="Path" points="81.73 0.15 81.73 16.33 78.59 16.33 78.59 0.15"></polygon>
            <path d="M86.8,16.32 L83.18,0.14 L86.66,0.14 L87.81,7.12 C88.1,8.85 88.43,10.84 88.65,12.74 L88.7,12.74 C88.92,10.82 89.18,8.88 89.47,7.05 L90.57,0.14 L94.03,0.14 L90.33,16.32 L86.8,16.32 Z" id="Path"></path>
            <polygon id="Path" points="102.23 9.22 98.53 9.22 98.53 13.59 102.71 13.59 102.71 16.33 95.39 16.33 95.39 0.15 102.42 0.15 102.42 2.89 98.53 2.89 98.53 6.61 102.23 6.61 102.23 9.23"></polygon>
            <path d="M118.55,10.66 C118.48,9.12 118.36,7.04 118.41,5.31 L118.34,5.31 C118.05,7.04 117.62,9.03 117.31,10.28 L115.92,16.06 L113.69,16.06 L112.35,10.37 C112.04,9.07 111.61,7.06 111.37,5.31 L111.3,5.31 C111.25,7.06 111.16,9.1 111.06,10.71 L110.8,16.33 L108.09,16.33 L109.27,0.15 L112.58,0.15 L113.88,6.01 C114.34,8.05 114.74,9.85 115.03,11.68 L115.08,11.68 C115.32,9.88 115.68,8.06 116.11,6.01 L117.38,0.15 L120.69,0.15 L121.67,16.33 L118.86,16.33 L118.57,10.66 L118.55,10.66 Z" id="Path"></path>
            <path d="M126.52,12.63 L125.8,16.33 L122.75,16.33 L126.25,0.15 L130.02,0.15 L133.16,16.33 L130.11,16.33 L129.41,12.63 L126.51,12.63 L126.52,12.63 Z M129.14,10.18 L128.61,6.8 C128.44,5.82 128.23,4.21 128.08,3.13 L128.01,3.13 C127.84,4.21 127.6,5.89 127.43,6.83 L126.83,10.19 L129.13,10.19 L129.14,10.18 Z" id="Shape"></path>
            <path d="M134.94,0.39 C135.83,0.2 137.03,0.08 138.23,0.08 C140.1,0.08 141.57,0.34 142.62,1.33 C143.58,2.17 144.01,3.51 144.01,4.88 C144.01,6.63 143.48,7.86 142.64,8.77 C141.63,9.83 140,10.31 138.7,10.31 L138.08,10.31 L138.08,16.33 L134.94,16.33 L134.94,0.39 L134.94,0.39 Z M138.08,7.73 C138.22,7.78 138.39,7.78 138.58,7.78 C140.16,7.78 140.88,6.65 140.88,5.14 C140.88,3.72 140.3,2.62 138.84,2.62 C138.55,2.62 138.26,2.67 138.07,2.74 L138.07,7.73 L138.08,7.73 Z" id="Shape"></path>
        </g>
        <g id="ac" transform="translate(50.209627, 71.190593)" fill-rule="nonzero">
            <g id="Group">
                <path d="M0.000373314686,16.3703697 C0.0603733147,25.5003697 7.31037331,32.6203697 16.5003733,32.5805374 C25.2403733,32.5503697 32.5303733,25.1003697 32.480629,16.2703697 C32.4203733,7.19036974 25.1303733,-0.0596302626 16.1203733,0.0103697374 C7.12037331,0.0703697374 -0.0596266853,7.37036974 0.000373314686,16.3803697 L0.000373314686,16.3703697 Z M16.2503733,81.8503697 C17.0203733,79.8803697 18.4203733,78.2203697 18.4103733,75.9803697 C18.3803733,62.6603697 18.4103733,49.3403697 18.3903733,36.0203697 C18.3903733,35.0903697 18.6103733,33.8803697 18.1303733,33.3103697 C17.7403733,32.8503697 16.4503733,33.1403697 15.5603733,33.1203697 C14.0303733,33.0803697 14.0203733,33.0903697 14.0203733,34.6203697 C14.0203733,47.9803697 14.0803733,61.3303697 13.9703733,74.6903697 C13.9503733,77.3903697 15.1303733,79.5103697 16.2503733,81.8503697 L16.2503733,81.8503697 Z" id="Shape" fill="#FFFFFF"></path>
                <path d="M0.000373314686,16.3703697 C-0.0596266853,7.36036974 7.12037331,0.0703697374 16.1203733,0.000369737401 C25.1303733,-0.0596302626 32.4303733,7.19036974 32.480629,16.2603697 C32.5303733,25.1003697 25.2403733,32.5403697 16.5003733,32.5705374 C7.30037331,32.6103697 0.0603733147,25.4903697 0.000373314686,16.3603697 L0.000373314686,16.3703697 Z M3.44037331,14.9703697 C4.43037331,12.2403697 5.50037331,9.64036974 7.58037331,7.55036974 C9.66037331,5.45036974 12.3403733,4.51036974 14.9803733,3.42036974 C11.3003733,2.97036974 8.29037331,4.24036974 5.89037331,6.96036974 C3.88037331,9.24036974 2.90037331,11.8803697 3.43037331,14.9703697 L3.44037331,14.9703697 Z" id="Shape" fill="#FF250A"></path>
                <path d="M16.2503733,81.8503697 C15.1403733,79.5203697 13.9503733,77.3903697 13.9703733,74.6903697 C14.0903733,61.3303697 14.0203733,47.9803697 14.0203733,34.6203697 C14.0203733,33.0903697 14.0203733,33.0803697 15.5603733,33.1203697 C16.4503733,33.1403697 17.7403733,32.8503697 18.1303733,33.3103697 C18.6103733,33.8803697 18.3903733,35.0903697 18.3903733,36.0203697 C18.3903733,49.3403697 18.3903733,62.6603697 18.4103733,75.9803697 C18.4103733,78.2203697 17.0103733,79.8803697 16.2503733,81.8503697 L16.2503733,81.8503697 Z" id="Path" fill="#FF250A"></path>
                <path d="M3.45037331,14.9803697 C2.93037331,11.8903697 3.90037331,9.25036974 5.91037331,6.97036974 C8.31037331,4.25036974 11.3203733,2.99036974 15.0003733,3.43036974 C12.3603733,4.51036974 9.68037331,5.46036974 7.60037331,7.56036974 C5.52037331,9.66036974 4.45037331,12.2603697 3.46037331,14.9803697 L3.45037331,14.9803697 Z" id="Path" fill="#FFFFFF"></path>
            </g>
        </g>
    </g>
</svg>