<?xml version="1.0" encoding="UTF-8"?>
<svg width="1239.56204px" height="681.911875px" viewBox="0 0 1239.56204 681.911875" version="1.1" xmlns="http://www.w3.org/2000/svg" xmlns:xlink="http://www.w3.org/1999/xlink">
    <title>mass-map</title>
    <g id="mass-map" stroke="none" stroke-width="1" fill="none" fill-rule="evenodd">
        <g id="Group" transform="translate(0.000000, 0.000000)" fill="#E3E3E3" fill-rule="nonzero">
            <path d="M0.02,331.972512 C1.55,335.542512 3.34,339.042512 4.53,342.722512 C5.35,345.242512 6.7,345.392512 8.95,345.332512 C22.17,344.962512 35.41,344.442512 48.63,344.622512 C62.53,344.812512 76.42,345.792512 90.31,346.332512 C102.21,346.792512 114.12,347.112512 126.02,347.512512 C148.58,348.282512 171.14,349.052512 193.69,349.882512 C206.59,350.352512 219.49,350.932512 232.38,351.502512 C234.59,351.602512 236.79,351.862512 239.2,352.062512 L239.2,365.952512 C243.97,365.072512 248.44,364.312512 252.87,363.382512 C253.69,363.212512 254.66,362.522512 255.07,361.802512 C256.94,358.472512 258.68,355.052512 260.39,351.632512 C261.12,350.172512 262.11,349.652512 263.77,349.782512 C277.53,350.882512 291.3,351.852512 305.06,353.032512 C306.94,353.192512 308.71,354.612512 310.6,354.822512 C313.59,355.162512 317.18,356.012512 319.54,354.782512 C323.26,352.842512 327,351.872512 330.93,351.912512 C346.75,352.072512 362.56,352.532512 378.38,352.832512 C397.37,353.192512 416.36,353.502512 435.35,353.822512 C465.17,354.332512 494.98,354.862512 524.8,355.332512 C540.63,355.582512 556.46,355.692512 572.28,355.932512 C577.69,356.012512 583.1,356.312512 588.52,356.432512 C590.19,356.472512 591.07,357.052512 590.82,358.802512 C590.51,360.972512 591.54,361.442512 593.54,361.382512 C604.7,361.002512 615.85,360.662512 627.01,360.442512 C648.5,360.022512 669.99,359.722512 691.48,359.312512 C701.06,359.132512 710.63,358.762512 720.21,358.562512 C725.27,358.462512 730.33,358.542512 735.86,358.542512 L735.86,410.262512 C741.34,409.242512 745.73,405.792512 751.64,406.832512 C751.9,411.372512 752.45,416.152512 752.4,420.922512 C752.33,428.732512 751.83,436.532512 751.59,444.332512 C751.46,448.522512 752.17,452.532512 755.41,455.542512 C757.2,457.212512 759.42,458.432512 761.16,460.152512 C764.5,463.462512 768.94,464.852512 772.84,467.172512 C773.9,467.802512 775.03,468.402512 775.91,469.242512 C781.24,474.302512 785.51,480.312512 791.8,484.572512 C794.96,486.712512 797.5,488.512512 801.1,487.272512 C803.45,486.462512 805.82,485.232512 807.7,483.622512 C809.94,481.702512 812.2,481.592512 814.59,481.942512 C815.81,484.722512 814.64,486.662512 813.04,488.652512 C810.13,492.282512 807.39,496.062512 804.6,499.792512 C803.78,500.892512 803.67,502.062512 805.13,502.652512 C807.5,503.612512 809.88,504.842512 812.36,505.152512 C816.02,505.622512 818.88,507.162512 820.26,510.402512 C821.66,513.702512 821.07,517.062512 818.65,519.982512 C818.18,520.552512 817.94,521.682512 818.14,522.402512 C820.92,531.942512 822.1,541.732512 822.99,551.592512 C823.64,558.792512 824.61,565.962512 825.56,573.132512 C825.64,573.742512 826.57,574.662512 827.17,574.712512 C830.54,575.002512 833.28,572.902512 833.81,569.592512 C833.96,568.662512 833.56,567.522512 833.11,566.642512 C831.69,563.912512 830.04,561.302512 828.68,558.552512 C828.32,557.822512 828.68,556.742512 828.72,555.822512 C829.54,555.972512 830.5,555.912512 831.16,556.312512 C832.43,557.082512 833.49,558.192512 834.72,559.042512 C836.29,560.112512 837.82,561.392512 839.57,562.002512 C843.15,563.252512 845.7,560.822512 844.79,557.182512 C844.45,555.832512 843.91,554.482512 843.22,553.272512 C841.43,550.172512 840.97,546.952512 841.55,543.422512 C842.1,540.072512 842.27,536.662512 842.66,533.292512 C842.72,532.732512 843.04,532.212512 843.24,531.672512 L844.29,531.712512 C844.46,533.232512 844.8,534.762512 844.74,536.272512 C844.69,537.742512 844.1,539.192512 843.98,540.672512 C843.52,546.152512 846.54,550.492512 848.82,555.072512 C849.32,556.072512 849.7,557.142512 849.97,558.222512 C850.25,559.332512 850.22,560.532512 850.54,561.642512 C851.74,565.802512 851.44,566.392512 847.21,567.312512 C846.56,567.452512 845.82,567.312512 845.24,567.562512 C843.37,568.382512 841.56,569.322512 839.72,570.222512 L840.02,570.982512 C840.31,571.072512 840.6,571.212512 840.89,571.252512 C846.91,571.892512 851.65,574.112512 852.7,580.862512 C852.71,580.942512 852.78,581.012512 852.79,581.092512 C853.15,583.192512 854.28,583.912512 856.64,582.902512 C856.85,579.982512 857.07,576.892512 857.29,573.722512 C860.75,569.912512 865.45,568.842512 870.67,569.262512 C872.8,569.432512 873.71,568.172512 873.71,566.212512 C873.71,564.982512 873.51,563.742512 873.36,562.512512 C873.12,560.512512 872.85,558.512512 872.56,556.282512 C875.42,556.432512 877.65,555.762512 878.64,559.292512 C879.4,562.002512 881.68,564.272512 883.28,566.742512 L884.01,566.662512 C884.24,565.242512 884.74,563.812512 884.65,562.412512 C884.47,559.612512 886.07,558.282512 888.3,557.442512 C891.27,556.322512 892.02,554.532512 890.2,551.892512 C887.93,548.612512 885.45,545.472512 883.06,542.272512 C881.55,540.252512 880.2,538.192512 881.11,534.802512 C883.14,535.532512 885.04,536.142512 886.89,536.882512 C889.42,537.882512 890.18,537.532512 890.72,534.942512 C890.99,533.642512 891.03,532.252512 891.54,531.052512 C892.12,529.692512 893.11,528.502512 893.92,527.232512 C894.88,528.392512 896.25,529.412512 896.69,530.742512 C897.47,533.062512 898.9,533.702512 901.35,533.632512 C901.08,532.482512 901.06,531.422512 900.61,530.612512 C899.07,527.872512 897.29,525.252512 895.75,522.512512 C894.45,520.202512 891.24,518.492512 893.2,515.052512 C891.35,512.452512 893.31,510.032512 893.85,507.692512 C894.32,505.682512 895.74,503.642512 898.18,502.702512 C898.48,504.602512 898.63,506.172512 898.98,507.702512 C899.74,511.012512 900.54,514.312512 901.45,517.582512 C901.62,518.172512 902.35,518.652512 902.91,519.082512 C905.3,520.912512 907.77,522.632512 910.1,524.532512 C910.74,525.052512 911.05,526.042512 911.39,526.862512 C912.86,530.392512 914.2,533.962512 915.75,537.452512 C916.4,538.922512 917.35,540.372512 919.93,540.042512 C919.53,536.992512 918.97,534.062512 918.82,531.122512 C918.62,527.142512 917.41,524.072512 913.16,523.022512 C913.04,522.992512 912.98,522.772512 912.89,522.642512 C915.15,519.072512 916.41,518.682512 920.02,520.452512 C920.32,520.602512 920.61,520.762512 920.91,520.912512 C924.12,522.482512 925.05,522.262512 927.79,520.052512 C928.47,519.502512 929.97,519.242512 930.68,519.622512 C932.93,520.812512 934.56,520.662512 936.58,518.432512 C933.89,515.712512 931.19,512.982512 928.43,510.192512 C930.6,508.142512 932.49,508.492512 934.46,509.122512 C936.59,509.802512 938.72,510.742512 940.9,510.902512 C942.84,511.052512 944.12,511.502512 945.21,513.152512 C946.37,514.892512 947.9,514.792512 948.49,512.822512 C949.39,509.842512 949.72,506.692512 950.4,503.632512 C950.65,502.482512 950.94,501.192512 951.65,500.322512 C953.42,498.152512 954.07,496.022512 952.47,493.502512 C951.1,491.342512 951.62,489.602512 953.83,488.182512 C955.62,489.462512 957.4,490.642512 957.46,493.192512 C957.47,493.692512 957.84,494.252512 958.18,494.672512 C960.12,497.092512 962.64,496.002512 965.54,496.012512 C965.2,494.502512 965.06,493.322512 964.66,492.232512 C964.15,490.812512 963.66,489.602512 965.5,488.692512 C967.09,487.902512 966.79,486.722512 965.64,485.732512 C964.96,485.152512 964.14,484.682512 963.33,484.282512 C960.85,483.072512 960.05,480.712512 958.67,478.272512 C960.1,478.272512 961.07,478.452512 961.91,478.222512 C962.76,477.992512 963.84,477.532512 964.23,476.842512 C965.69,474.242512 966.58,473.812512 969.76,474.782512 C970.16,478.522512 971.23,479.642512 974.7,479.802512 C975.68,479.842512 976.68,479.542512 977.66,479.592512 C978.48,479.632512 979.56,479.712512 980.04,480.232512 C981.62,481.932512 982.99,483.832512 984.44,485.652512 C984.13,486.372512 982.97,487.552512 982.02,488.882512 C981.05,490.232512 980.29,491.722512 979.44,493.152512 L980.15,493.942512 C981.17,493.482512 982.35,493.202512 983.18,492.512512 C984.51,491.392512 985.66,490.042512 986.79,488.712512 C989.34,485.712512 989.43,483.372512 987.72,479.802512 C987.32,478.972512 987.62,476.892512 988.14,476.682512 C989.93,475.932512 991.95,475.532512 993.9,475.452512 C994.75,475.412512 995.95,476.282512 996.4,477.082512 C996.63,477.492512 995.73,478.772512 995.09,479.422512 C993.58,480.942512 993.71,482.612512 995.59,483.762512 C995.87,483.932512 996.28,484.022512 996.43,484.272512 C997.1,485.362512 998.13,486.482512 998.16,487.612512 C998.18,488.322512 996.74,489.242512 995.79,489.752512 C994.2,490.602512 992.33,490.982512 990.85,491.962512 C988.97,493.192512 987.36,494.832512 985.37,496.512512 C989.29,499.172512 991.84,496.712512 994.58,495.332512 C995.42,496.092512 996.4,496.692512 996.96,497.562512 C997.63,498.602512 998.34,499.912512 998.25,501.042512 C998.2,501.662512 996.58,502.362512 995.56,502.632512 C993.3,503.222512 990.97,503.562512 988.66,504.002512 C988.58,504.332512 988.51,504.662512 988.43,504.992512 C989.73,505.612512 990.98,506.482512 992.36,506.782512 C993.55,507.032512 994.91,506.932512 994.8,508.482512 C994.74,509.312512 993.87,510.132512 993.28,510.882512 C992.52,511.852512 991.02,512.722512 990.97,513.702512 C990.51,521.432512 990.2,529.172512 990.11,536.912512 C990.08,539.272512 989.73,541.102512 987.73,542.522512 C985.62,544.032512 984.66,546.152512 984.75,548.772512 C984.79,550.012512 984.55,551.262512 984.52,552.512512 C984.45,555.262512 983.08,557.122512 980.82,558.592512 C978.77,559.922512 976.88,561.492512 974.92,562.962512 L975.1,563.712512 C976.18,563.882512 977.39,564.452512 978.29,564.132512 C979.94,563.542512 980.96,563.602512 982.41,564.832512 C983.29,565.572512 985.59,565.652512 986.6,565.012512 C989.67,563.052512 992.44,560.612512 995.29,558.322512 C997.94,556.192512 1000.81,555.212512 1004.32,555.652512 C1008.71,556.212512 1009.14,555.702512 1009.63,551.432512 C1010.01,548.122512 1010.06,548.082512 1013.7,548.462512 C1013.82,550.352512 1013.95,552.282512 1014.09,554.422512 C1016.89,554.182512 1019.45,553.962512 1022.01,553.722512 C1022.67,553.662512 1023.38,553.662512 1023.98,553.422512 C1024.52,553.202512 1025.1,552.792512 1025.4,552.302512 C1026.99,549.772512 1028.39,547.112512 1030.09,544.672512 C1030.68,543.822512 1031.96,543.452512 1032.93,542.862512 C1033.18,543.912512 1033.69,544.982512 1033.62,546.012512 C1033.46,548.292512 1033.02,550.552512 1032.69,552.792512 C1035.91,553.552512 1042.11,552.742512 1043.59,551.282512 C1047.79,547.132512 1052.03,542.992512 1056.03,538.642512 C1058.76,535.662512 1060.93,532.182512 1060.61,527.912512 C1060.42,525.382512 1061.14,523.842512 1063.57,522.992512 C1064.65,522.622512 1065.64,521.912512 1066.59,521.252512 C1068.58,519.882512 1070.58,518.852512 1073.16,518.842512 C1075.82,518.832512 1076.13,518.862512 1076.17,521.672512 C1076.2,523.822512 1076.17,525.962512 1076.17,528.812512 C1078.13,528.182512 1079.65,528.012512 1080.79,527.262512 C1082.58,526.082512 1084.27,524.652512 1085.72,523.062512 C1087.94,520.622512 1090.65,519.762512 1093.79,519.952512 C1096.28,520.102512 1098.77,520.312512 1101.25,520.632512 C1103.84,520.972512 1106.27,521.292512 1108.49,519.222512 C1109.27,518.492512 1110.81,518.362512 1112.01,518.342512 C1114.64,518.282512 1116.8,517.512512 1118.69,515.552512 C1121.98,512.142512 1126.07,512.872512 1128.65,517.532512 C1126.5,518.412512 1124.35,519.212512 1122.29,520.182512 C1121.58,520.522512 1120.62,521.232512 1120.55,521.862512 C1120.32,523.802512 1120.47,525.792512 1120.47,527.752512 L1121.08,528.242512 C1121.94,527.552512 1122.9,526.952512 1123.65,526.162512 C1124.96,524.792512 1125.87,522.822512 1127.43,521.942512 C1133.05,518.742512 1138.64,515.272512 1144.67,513.102512 C1149.4,511.392512 1154.76,511.372512 1159.86,510.752512 C1162.99,510.372512 1166.22,510.592512 1169.29,509.962512 C1177.48,508.282512 1185.18,503.842512 1193.98,505.732512 C1194.21,505.782512 1194.5,505.732512 1194.72,505.642512 C1199.44,503.662512 1204.4,504.512512 1209.28,504.312512 C1212.15,504.192512 1214.71,504.512512 1216.78,506.752512 C1217.24,507.242512 1218.05,507.412512 1218.72,507.742512 C1220.67,505.252512 1222.67,503.212512 1226.27,503.352512 C1225.35,505.132512 1224.65,506.482512 1223.95,507.852512 C1226.98,509.222512 1228.21,508.752512 1229.13,506.142512 C1229.38,505.442512 1229.65,504.722512 1230.08,504.122512 C1231.99,501.442512 1232.03,498.562512 1231.17,495.542512 C1230.79,494.182512 1230.39,492.822512 1230.18,491.432512 C1229.73,488.392512 1229.38,488.032512 1226.26,488.042512 C1223.19333,488.042512 1221.45333,486.519178 1221.04,483.472512 C1221.04,483.402512 1220.94,483.342512 1220.68,483.012512 C1219.74,483.192512 1218.62,483.622512 1217.55,483.532512 C1216.82,483.472512 1215.63,482.752512 1215.54,482.182512 C1215.25,480.262512 1218.79,475.532512 1220.74,475.452512 C1223.3,475.342512 1223.67,473.692512 1224.03,471.852512 C1224.24,470.792512 1224.18,469.642512 1224.58,468.682512 C1225.34,466.872512 1225.46,465.412512 1223.71,464.042512 C1223.3,463.722512 1223.5,462.612512 1223.42,461.872512 C1224.18,461.812512 1225.03,461.522512 1225.69,461.752512 C1226.58,462.062512 1227.33,462.782512 1228.08,463.292512 C1229.34,462.552512 1230.45,461.892512 1231.64,461.192512 C1231.97,461.702512 1232.19,461.942512 1232.3,462.232512 C1234.37,467.532512 1235.79,472.952512 1235.74,478.722512 C1235.7,484.032512 1237.27,489.262512 1235.47,494.692512 C1234.49,497.632512 1234.36,500.832512 1232.58,503.582512 C1231.78,504.812512 1231.21,506.252512 1230.9,507.682512 C1230.73,508.462512 1231.32,509.412512 1231.57,510.292512 C1232.37,509.812512 1233.48,509.522512 1233.93,508.812512 C1236.38,504.952512 1239,501.112512 1238.18,496.122512 C1238.05,495.342512 1238.4,494.492512 1238.48,493.672512 C1238.84,489.812512 1239.19,485.952512 1239.54,482.082512 C1239.54,482.002512 1239.52,481.912512 1239.52,481.832512 C1238.89,472.882512 1238.12,463.932512 1237.66,454.972512 C1237.38,449.472512 1236.11,448.392512 1230.95,450.152512 C1230.82,450.202512 1230.64,450.112512 1230.48,450.082512 C1228.61,447.332512 1227.27,447.312512 1225.19,449.902512 C1224.52,450.732512 1223.75,451.562512 1222.85,452.082512 C1222.22,452.452512 1221.29,452.312512 1220.49,452.402512 C1220.43,451.622512 1220.08,450.702512 1220.37,450.092512 C1221.08,448.612512 1221.95,447.152512 1223.01,445.902512 C1224.65,443.952512 1225.5,441.952512 1225.28,439.302512 C1225.17,438.012512 1225.9,436.372512 1226.8,435.382512 C1227.48,434.642512 1229.16,434.242512 1230.14,434.532512 C1230.89,434.752512 1231.38,436.262512 1231.72,437.282512 C1231.97,438.032512 1231.75,438.932512 1231.82,439.762512 C1232.11,443.032512 1233.32,444.752512 1235.9,445.202512 C1235.9,443.792512 1235.9,442.432512 1235.9,441.072512 C1235.9,436.042512 1233.55,431.632512 1232.14,426.972512 C1229.85,419.422512 1228,411.732512 1225.44,404.282512 C1219.44,386.842512 1210.19,371.072512 1199.86,355.892512 C1194.08,347.402512 1185.5,342.532512 1176.85,337.742512 C1175.87,337.202512 1174.6,337.202512 1173.48,336.912512 C1170.53,336.142512 1167.58,335.352512 1164.63,334.572512 C1162.18,333.922512 1159.73,332.742512 1157.27,332.712512 C1150.28,332.622512 1143.29,332.872512 1136.31,333.262512 C1133.56,333.412512 1130.88,334.392512 1129.39,337.102512 C1128.47,338.772512 1129.29,340.022512 1131.18,339.952512 C1131.65,339.932512 1132.12,339.902512 1132.56,339.872512 C1132.84,340.832512 1132.92,341.702512 1133.33,342.382512 C1135,345.162512 1137.87,347.252512 1138.21,350.822512 C1138.23,351.062512 1138.7,351.242512 1138.94,351.472512 C1140.49,352.972512 1142.1,354.412512 1143.55,356.002512 C1145.53,358.162512 1146.85,358.472512 1149.48,357.182512 C1151.17,356.352512 1152.97,355.702512 1154.58,354.732512 C1155.21,354.352512 1155.45,353.312512 1155.87,352.572512 C1155.61,352.302512 1155.35,352.022512 1155.1,351.752512 C1153.48,352.592512 1151.94,353.652512 1150.23,354.202512 C1149.11,354.562512 1147.67,354.422512 1146.55,354.032512 C1146.14,353.892512 1145.8,352.162512 1146.13,351.492512 C1149.71,344.192512 1157.22,341.342512 1164.56,344.242512 C1171.61,347.032512 1176.92,351.992512 1181.61,357.702512 C1182.68,359.002512 1183.29,360.762512 1183.79,362.412512 C1184.36,364.292512 1184.53,366.282512 1184.92,368.212512 C1186.89,377.832512 1186.77,387.562512 1186.61,397.302512 C1186.53,402.212512 1186.62,407.122512 1186.79,412.032512 C1186.89,414.982512 1189.34,416.682512 1192.35,415.772512 C1189.86,411.562512 1190.78,406.942512 1190.72,402.432512 C1190.68,399.622512 1192.43,397.612512 1195.42,396.812512 C1198.69,395.942512 1199.69,396.382512 1201.5,399.462512 C1202,400.322512 1202.47,401.212512 1203.05,402.022512 C1204.34,403.842512 1206.06,404.562512 1208.27,403.912512 C1208.9,403.722512 1209.57,403.432512 1210.19,403.492512 C1210.78,403.552512 1211.5,403.892512 1211.82,404.352512 C1212.01,404.622512 1211.68,405.512512 1211.32,405.852512 C1210.48,406.642512 1209.41,407.182512 1208.57,407.972512 C1207.77,408.722512 1207.14,409.662512 1206.43,410.512512 C1207.25,410.972512 1208.2,411.312512 1208.87,411.942512 C1209.74,412.742512 1210.99,413.742512 1211.03,414.702512 C1211.2,418.172512 1210.77,421.672512 1210.88,425.152512 C1211.03,430.052512 1211.5,434.942512 1211.73,439.842512 C1211.77,440.782512 1211.59,441.922512 1211.09,442.682512 C1208.97,445.862512 1206.75,448.972512 1204.45,452.022512 C1203.51,453.272512 1202.49,454.702512 1201.16,455.372512 C1197.91,456.992512 1194.58,458.682512 1191.08,459.532512 C1176.57,463.052512 1162.01,466.432512 1147.4,469.542512 C1141.77,470.742512 1136.9,472.782512 1132.72,476.852512 C1129.69,479.792512 1126.18,482.262512 1122.74,484.742512 C1121.67,485.522512 1120.13,486.082512 1118.83,486.052512 C1112.85,485.892512 1106.88,485.392512 1100.91,485.202512 C1098.58,485.132512 1098.13,484.002512 1098.32,481.962512 C1104.87,481.562512 1111.34,481.172512 1117.81,480.782512 L1118.02,479.572512 C1115.81,478.582512 1113.67,477.032512 1111.37,476.702512 C1105.55,475.872512 1099.65,475.272512 1093.78,475.162512 C1084.86,475.002512 1076.25,473.592512 1067.94,470.342512 C1059.27,466.952512 1050.57,463.662512 1041.89,460.312512 C1041.44,460.142512 1040.93,459.942512 1040.62,459.592512 C1036.16,454.642512 1031.72,449.682512 1027.33,444.692512 C1026.81,444.102512 1026.38,443.302512 1026.21,442.532512 C1025.02,437.222512 1027.87,432.802512 1029.67,428.222512 C1030.45,426.232512 1030.78,424.542512 1030.2,422.492512 C1029.67,420.632512 1029.17,418.622512 1029.33,416.742512 C1029.59,413.502512 1028.97,410.652512 1027.13,408.012512 C1026.47,407.062512 1025.89,406.042512 1025.37,405.002512 C1024.55,403.362512 1024.17,401.812512 1025.85,400.282512 C1026.88,399.352512 1026.44,396.112512 1025.35,395.522512 C1020.14,392.702512 1014.94,389.872512 1008.65,390.642512 C1007.01,390.842512 1005.32,390.712512 1003.66,390.632512 C1002.94,390.592512 1002.1,390.492512 1001.54,390.092512 C997.35,387.122512 993.55,383.862512 992.19,378.522512 C991.63,376.322512 989.89,375.162512 987.59,374.662512 C987.46,378.272512 991.98,380.812512 988.93,385.022512 C986.39,383.332512 983.68,382.002512 981.57,380.022512 C978.87,377.492512 976.69,374.402512 974.2,371.642512 C972.53,369.792512 970.6,368.162512 969.04,366.232512 C968.57,365.652512 968.58,364.122512 969.02,363.472512 C970.83,360.842512 973.41,360.452512 975.94,361.562512 C978.67,357.822512 981.28,354.252512 983.9,350.682512 C984.72,349.572512 985.58,348.482512 986.42,347.392512 C985.28,346.652512 983.95,346.082512 983.05,345.112512 C982.23,344.232512 981.86,342.912512 981.3,341.782512 C982.27,341.422512 983.31,340.632512 984.19,340.792512 C985.33,341.002512 986.67,341.722512 987.33,342.642512 C990.23,346.702512 992.86,350.952512 995.68,355.072512 C998.54,359.262512 998.39,361.062512 994.73,364.462512 C993.48,365.622512 992.08,367.002512 993.47,368.632512 C993.82,369.042512 996.21,368.282512 997.15,367.462512 C999.16,365.722512 1001.24,364.742512 1003.93,364.882512 C1004.83,364.932512 1005.75,364.442512 1006.66,364.202512 C1006,360.982512 1004.45,358.922512 1002.42,356.662512 C997.92,351.622512 994.12,345.902512 990.42,340.222512 C989.65,339.042512 990.5,336.812512 990.63,335.062512 C990.73,333.702512 991.41,332.052512 990.88,331.032512 C989.33,328.062512 987.37,325.292512 985.45,322.532512 C984.04,320.512512 982.31,318.702512 980.92,316.672512 C977.86,312.222512 974.96,307.672512 971.91,303.222512 C971.25,302.262512 970.22,301.572512 968.99,300.402512 C969.07,301.322512 969.16,301.652512 969.11,301.962512 C968.94,303.032512 968.71,304.082512 968.51,305.152512 C967.59,304.452512 966.42,303.922512 965.79,303.022512 C964.5,301.192512 963.49,299.172512 962.32,297.132512 C962.48,297.112512 962.85,297.032512 963.23,297.002512 C966.25,296.802512 966.42,296.592512 966.32,293.552512 C966.27,291.972512 965.93,290.282512 966.37,288.832512 C967.02,286.682512 966.01,285.392512 964.9,283.902512 C964.13,282.862512 963.06,281.532512 963.2,280.472512 C963.45,278.552512 962.36,278.172512 961.18,277.372512 C956.44,274.162512 951.47,271.102512 950.55,264.662512 C950.47,264.112512 950.09,263.602512 949.82,263.082512 C948.98,261.492512 947.98,261.322512 946.78,262.752512 C945.61,264.152512 944.49,265.632512 943.19,266.912512 C941.22,268.852512 939.4,268.432512 938.46,265.812512 C937.93,264.342512 937.83,262.712512 937.29,261.242512 C936.98,260.402512 936.33,259.342512 935.58,259.062512 C930.6,257.202512 925.59,255.402512 920.52,253.852512 C916.88,252.742512 914.04,250.672512 912.27,247.442512 C910.58,244.352512 909.35,241.012512 907.69,237.282512 C902.22,235.982512 897.47,236.702512 896.16,241.342512 C897.59,241.442512 898.98,241.672512 900.35,241.612512 C904,241.462512 906.21,243.072512 907.37,246.562512 C908.48,249.912512 910.16,252.952512 913.47,254.792512 C914.48,255.352512 915.5,256.512512 914.21,257.612512 C912.16,259.352512 910.07,261.232512 907.67,262.322512 C904.98,263.542512 904.09,262.672512 903.91,259.792512 C903.76,257.282512 903,256.652512 900.82,257.722512 C897.09,259.542512 893.14,261.292512 892.99,266.402512 C892.99,266.722512 892.93,267.172512 892.72,267.332512 C892.06,267.832512 891.34,268.472512 890.6,268.532512 C890.19,268.562512 889.43,267.592512 889.3,266.972512 C888.91,265.132512 888.76,263.242512 888.52,261.372512 C884.72,261.732512 881.99,264.712512 881.92,268.392512 C881.91,268.902512 881.38,269.562512 880.91,269.862512 C880.53,270.112512 879.74,270.132512 879.35,269.892512 C877.42,268.712512 876.88,265.372512 878.27,263.542512 C879.11,262.432512 880,261.352512 880.88,260.252512 C880.32,259.832512 879.94,259.542512 879.49,259.202512 C881.48,257.632512 883.54,256.382512 883.21,252.912512 C881.22,253.692512 879.51,254.332512 877.81,255.042512 C875.89,255.842512 874.03,256.912512 871.94,255.472512 C870.16,254.252512 868.45,252.882512 866.53,251.942512 C864.1,250.752512 863.17,249.122512 864.15,246.602512 C864.45,245.832512 865.04,245.142512 865.6,244.502512 C866.5,243.502512 867.49,242.582512 868.44,241.622512 L868.09,240.632512 C864.5,240.832512 860.88,240.822512 857.34,241.372512 C856.28,241.532512 855.48,243.272512 854.52,244.262512 C854.09,244.702512 853.58,245.072512 852.91,245.642512 C852.04,243.152512 851.09,241.122512 852.86,238.822512 C853.45,238.062512 853.57,236.422512 853.16,235.512512 C852.04,232.992512 853.26,232.162512 855.31,231.332512 C857.49,230.462512 859.5,229.272512 860.05,226.622512 C860.33,225.252512 860.22,224.362512 858.59,224.132512 C856.78,223.882512 854.98,223.552512 853.21,223.112512 C852.45,222.922512 851.54,222.532512 851.11,221.942512 C850.26,220.772512 851.38,215.502512 852.64,214.182512 C855.46,215.472512 858.58,216.412512 861.12,218.192512 C863.4,219.782512 865.61,219.682512 867.97,219.412512 C868.76,219.322512 869.9,218.712512 870.11,218.082512 C870.32,217.462512 869.65,216.442512 869.18,215.722512 C867.8,213.612512 866.26,211.602512 864.92,209.462512 C864.62,208.982512 864.92,208.142512 864.93,207.472512 C865.7,207.542512 866.53,207.462512 867.22,207.732512 C867.68,207.912512 867.96,208.592512 868.29,209.062512 C869.65,211.042512 870.99,212.772512 873.72,213.292512 C875.07,213.552512 876.46,215.272512 877.18,216.672512 C878.25,218.752512 879.43,220.252512 882.09,220.462512 C881.75,217.222512 882.06,214.172512 879.34,211.672512 C878.26,210.672512 877.89,208.332512 878.07,206.692512 C878.26,205.032512 877.93,203.982512 876.8,202.982512 C875.31,201.652512 873.79,200.352512 872.36,198.962512 C871.21,197.842512 871.14,196.572512 871.95,195.112512 C874.47,190.532512 878.2,187.002512 882.02,183.572512 C882.84,182.832512 884.64,181.992512 885.16,182.362512 C886.23,183.122512 887.41,184.692512 887.38,185.892512 C887.25,190.452512 890.26,192.392512 893.62,193.952512 C897.11,195.572512 898.11,195.032512 899.62,191.462512 C898.44,189.612512 897.46,187.742512 894.72,187.472512 C893.67,187.372512 892.47,185.812512 891.89,184.642512 C890.69,182.242512 891.31,179.742512 892.39,177.422512 C893.86,174.242512 895.29,173.682512 898.61,174.812512 C902.41,176.112512 906.5,174.162512 908.03,170.412512 C908.91,168.262512 910.52,166.922512 912.84,166.502512 C913.4,166.402512 914.31,166.492512 914.47,166.182512 C916.1,163.112512 918.91,163.512512 921.65,163.532512 C923.37,163.542512 925.53,161.172512 925.14,159.272512 C924.97,158.432512 923.45,157.862512 922.09,156.822512 C921.78,155.162512 920.53,153.222512 918.09,152.732512 C914.09,151.922512 914.06,152.072512 912.08,155.642512 C911.84,156.082512 911.68,156.702512 911.31,156.902512 C910.46,157.342512 909.44,157.902512 908.61,157.742512 C908.15,157.652512 907.65,156.222512 907.67,155.412512 C907.75,152.702512 907.93,149.982512 908.3,147.302512 C908.68,144.582512 907.34,143.882512 904.96,143.632512 C902.84,143.412512 900.72,142.862512 898.7,142.182512 C898.17,142.002512 897.58,140.722512 897.72,140.112512 C897.86,139.482512 898.88,138.592512 899.49,138.612512 C901.2,138.672512 902.9,139.132512 904.6,139.442512 C906.39,139.762512 908.27,140.632512 909.94,140.322512 C917.61,138.912512 925.21,137.152512 932.85,135.572512 C936.48,134.822512 940.13,134.202512 943.77,133.462512 C945.93,133.022512 948.6,133.092512 950.1,131.822512 C952.95,129.422512 955.83,129.272512 959.3,129.202512 C962.62,129.142512 966.55,128.382512 969.07,126.442512 C973.19,123.272512 977.65,120.102512 980.2,115.222512 C980.34,114.952512 980.68,114.602512 980.94,114.592512 C982.26,114.522512 983.9,114.072512 984.83,114.682512 C985.62,115.192512 985.97,117.002512 985.83,118.162512 C985.58,120.302512 984.82,122.372512 984.27,124.482512 L985.13,125.132512 C986.27,124.482512 987.55,124.002512 988.5,123.152512 C989.85,121.952512 990.98,120.492512 992.15,119.102512 C993.1,117.972512 994.53,116.872512 994.77,115.572512 C995.5,111.702512 998.39,109.542512 1000.81,106.982512 C1001.94,105.792512 1003.17,104.502512 1004.62,103.852512 C1008.35,102.162512 1009.56,98.8225116 1007.17,95.4425116 C1006.03,93.8325116 1004.32,92.6225116 1003.15,91.0225116 C1001.37,88.5625116 999.47,86.0825116 998.29,83.3225116 C996.32,78.7025116 995.24,77.9825116 990.96,80.7825116 C987.42,83.0925116 984.17,85.8625116 980.9,88.5725116 C976.61,92.1325116 976.66,93.4925116 980.79,97.2725116 C981.33,97.7625116 982.02,98.3825116 982.11,99.0225116 C982.25,99.9825116 982.26,101.252512 981.74,101.982512 C979.9,104.562512 975.94,104.832512 973.26,102.642512 C973.65,101.792512 974.08,100.912512 974.47,100.012512 C976.03,96.3525116 975.34,95.1325116 971.43,94.3425116 C970.45,94.1425116 969.32,93.8625116 968.63,93.2125116 C967.19,91.8625116 966.19,92.2225116 965.11,93.5525116 C963.96,94.9725116 962.9,96.5025116 961.55,97.7125116 C959.38,99.6725116 956.38,99.8625116 954.99,98.4325116 L949.95,100.382512 L951.24,98.6625116 C949.98,98.2325116 948.67,97.8925116 947.48,97.3125116 C946.99,97.0725116 946.51,96.3125116 946.46,95.7525116 C946.27,93.7825116 946.27,91.7925116 946.21,89.8125116 C946.13,87.1025116 947.97,85.5925116 950.55,86.4325116 C952.28,87.0025116 953.89,87.9125116 955.58,88.6125116 C957.29,89.3225116 959.04,89.9025116 960.97,88.0825116 C960.04,86.8425116 959.33,85.3425116 958.15,84.4325116 C953.53,80.8525116 947.98,79.8925116 942.34,79.3025116 C942.1,79.2725116 941.81,79.3025116 941.61,79.4125116 C939.37,80.7025116 938.11,79.5525116 937.03,77.6825116 C936.09,76.0525116 935.19,74.5825116 932.77,75.9625116 C931.32,76.7925116 929.19,75.5525116 929.26,74.3225116 C929.4,71.9725116 929.46,69.6025116 929.88,67.3025116 C930.48,64.0725116 931.39,60.9025116 932.38,56.8325116 C933.83,58.9225116 935.72,60.4925116 936,62.3125116 C936.43,65.1425116 937.58,67.5225116 938.98,69.8025116 C940.21,71.8125116 941.89,73.5525116 943.53,75.2725116 C943.92,75.6825116 944.98,75.7225116 945.6,75.5125116 C945.96,75.3925116 946.33,74.4025116 946.23,73.9125116 C945.66,71.2625116 945.16,68.5725116 944.25,66.0325116 C942.26,60.4825116 939.73,55.1225116 938.01,49.4925116 C936.86,45.7325116 936.65,41.6825116 936.21,37.7325116 C936.05,36.3225116 936.4,34.9725116 934.61,34.2825116 C934.15,34.1125116 933.91,33.0725116 933.78,32.3925116 C933.59,31.4225116 933.72,30.3825116 933.48,29.4325116 C933.33,28.8225116 932.68,27.8325116 932.38,27.8725116 C931.67,27.9725116 930.74,28.4325116 930.41,29.0325116 C929.82,30.1025116 929.75,31.4425116 929.21,32.5325116 C928.82,33.3225116 928.02,34.4625116 927.38,34.4825116 C921.24,34.6325116 916.45,31.5525116 911.49,27.6925116 C917.26,26.6425116 922.49,25.6325116 927.75,24.7525116 C931.94,24.0525116 932.59,23.2325116 931.98,18.9925116 C931.41,15.1025116 929.96,11.2625116 931.63,7.22251159 C931.94,6.48251159 931.03,5.04251159 930.35,4.19251159 C930.1,3.87251159 928.55,4.03251159 928.18,4.46251159 C926.57,6.39251159 924.59,6.59251159 922.29,6.41251159 C921.02,6.31251159 919.48,7.26251159 918.44,6.83251159 C915.47,5.60251159 912.28,4.35251159 909.94,2.26251159 C907.63,0.192511592 905.35,-0.0374884076 902.65,0.0925115924 C900.16,0.222511592 897.65,0.362511592 895.16,0.232511592 C890.98,0.0125115924 887.16,1.14251159 883.28,2.56251159 C879.02,4.12251159 874.48,4.93251159 870.17,6.37251159 C867.22,7.35251159 864.2,8.49251159 861.64,10.1925116 C859.04,11.9125116 857,14.4525116 854.66,16.5725116 C851.85,19.1225116 849.51,21.9325116 848.33,25.6625116 C847.4,28.6125116 843.73,30.3925116 840.71,29.6125116 C836.85,28.6125116 833.03,27.4525116 829.16,26.5025116 C818.7,23.9525116 810.88,27.0025116 804.91,35.8525116 C804.77,36.0525116 804.58,36.2725116 804.56,36.4925116 C804.27,39.8725116 803.95,43.2425116 803.73,46.6225116 C803.56,49.3525116 803.65,52.1025116 803.36,54.8125116 C803.29,55.5125116 802.31,56.5225116 801.59,56.6725116 C798.39,57.3425116 795.25,57.2625116 792.08,56.0125116 C789.83,55.1225116 787.78,54.9525116 785.53,57.3225116 C780.46,62.6925116 774.8,67.5025116 769.35,72.5125116 C768.84,72.9825116 768.19,73.3925116 767.53,73.6225116 C766.37,74.0325116 765.16,74.2725116 763.97,74.6125116 C762.73,74.9725116 761.49,75.7325116 760.26,75.6925116 C747.03,75.3025116 733.8,74.7225116 720.57,74.3125116 C697.42,73.6025116 674.28,72.9725116 651.13,72.3125116 C622.41,71.4825116 593.68,70.6825116 564.96,69.8025116 C539.9,69.0325116 514.85,68.0725116 489.79,67.3725116 C466.14,66.7025116 442.49,66.2925116 418.83,65.7125116 C406.09,65.4025116 393.35,65.0225116 380.61,64.5925116 C358.89,63.8525116 337.17,62.9825116 315.44,62.2925116 C300.04,61.8025116 284.63,61.5425116 269.22,61.0925116 C244.08,60.3625116 218.93,59.5725116 193.79,58.7925116 C181.3,58.4025116 168.82,57.9225116 156.33,57.5825116 C132.68,56.9425116 109.03,56.3925116 85.38,55.7325116 C83.6,55.6825116 82.99,56.3225116 82.51,57.9325116 C56.91,143.052512 31.26,228.162512 5.61,313.262512 C3.82,319.212512 1.88,325.112512 0,331.032512 M996.56,591.172512 C994.71,590.762512 993.32,590.162512 991.96,590.222512 C989.88,590.322512 987.14,590.152512 985.88,591.362512 C977.05,599.822512 968.5,608.572512 959.95,617.322512 C958.52,618.782512 957.83,621.012512 956.31,622.332512 C953.53,624.742512 951.1,627.112512 949.88,630.822512 C949.06,633.322512 948.3,635.652512 948.51,638.292512 C948.61,639.522512 948.59,640.802512 948.35,642.012512 C948.08,643.362512 947.18,644.262512 945.64,643.892512 C944.27,643.562512 942.58,643.712512 942.69,641.382512 C942.77,639.752512 942.38,638.092512 942.09,636.462512 C942.01,635.992512 941.61,635.322512 941.21,635.192512 C935.77,633.382512 930.28,633.142512 924.86,635.192512 C924.32,635.392512 923.69,636.932512 923.95,637.402512 C925.18,639.702512 926.35,642.222512 928.2,643.972512 C931.69,647.292512 935.6,650.162512 939.39,653.152512 C940.43,653.972512 941.65,654.542512 942.8,655.212512 C944.36,656.132512 945.68,656.042512 946.91,654.512512 C948.99,651.912512 951.16,649.392512 953.37,646.892512 C955.62,644.342512 958.28,642.382512 961.77,641.922512 C969.25,640.932512 976.65,639.192512 984.31,639.722512 C987.1,639.912512 989.96,639.602512 992.75,639.262512 C998.99,638.512512 1005.2,637.572512 1011.43,636.762512 C1019.36,635.732512 1027.16,637.122512 1035.02,637.952512 C1038.36,638.302512 1041.8,637.632512 1045.2,637.422512 C1045.28,637.072512 1045.36,636.712512 1045.44,636.362512 C1044.69,635.692512 1044.05,634.742512 1043.18,634.402512 C1036.04,631.612512 1034.09,625.982512 1034.41,618.982512 C1034.44,618.282512 1034.36,617.332512 1033.92,616.912512 C1031.45,614.492512 1028.9,612.152512 1026.28,609.892512 C1025.01,608.792512 1023.78,609.112512 1022.59,610.302512 C1021.65,611.242512 1020.49,611.962512 1019.27,612.892512 C1018.53,610.272512 1017.95,608.192512 1017.46,606.442512 C1018.75,606.042512 1020.49,605.962512 1020.7,605.352512 C1022.07,601.422512 1022.14,597.452512 1020.27,593.562512 C1019.6,592.182512 1019.12,590.682512 1018.74,589.182512 C1018.41,587.892512 1015.9,585.942512 1014.72,586.292512 C1011.68,587.202512 1009.39,590.382512 1009.44,593.602512 C1009.48,596.412512 1007.17,599.572512 1003.99,600.742512 C1003.99,599.672512 1003.91,598.702512 1004,597.742512 C1004.33,594.512512 1004.9,591.302512 1005,588.072512 C1005.04,586.582512 1004.66,584.482512 1003.66,583.672512 C1001.69,582.092512 999.42,583.182512 997.43,584.402512 C995.65,585.492512 995.66,587.002512 996.26,588.742512 C996.48,589.402512 996.45,590.152512 996.56,591.172512 Z M1139.87,667.082512 C1144,669.322512 1148,671.062512 1151.53,673.492512 C1157.44,677.552512 1164.38,678.242512 1170.95,680.122512 C1172.01,680.422512 1173.29,680.222512 1174.41,679.992512 C1179.21,679.002512 1183.97,679.202512 1188.77,680.062512 C1197.39,681.602512 1206.03,682.632512 1214.81,681.292512 C1217.87,680.822512 1219.63,679.242512 1220.23,676.322512 C1220.72,673.972512 1220.99,671.572512 1221.5,669.222512 C1222.76,663.462512 1222.71,657.722512 1220.22,652.362512 C1216.22,643.772512 1211.98,635.292512 1207.61,626.892512 C1205.44,622.732512 1202.49,619.082512 1198.21,616.802512 C1197.49,616.422512 1196.56,616.432512 1195.72,616.262512 C1195.77,617.262512 1195.49,618.462512 1195.95,619.222512 C1196.92,620.842512 1198.19,622.332512 1199.5,623.702512 C1202.3,626.632512 1201.54,630.262512 1201.37,633.662512 C1201.31,634.872512 1199.92,636.012512 1199.17,637.212512 C1198.88,637.682512 1198.54,638.192512 1198.46,638.722512 C1197.82,642.542512 1195.33,645.412512 1193.02,648.162512 C1190.44,651.242512 1187.08,653.662512 1184.13,656.302512 C1184.65,658.382512 1185.95,658.562512 1187.32,657.622512 C1190.48,655.472512 1193.5,653.132512 1196.62,650.922512 C1199.25,649.062512 1201.49,646.942512 1202.57,643.762512 C1202.83,643.002512 1203.68,641.892512 1204.26,641.892512 C1205.85,641.892512 1207.82,641.342512 1208.63,643.682512 C1209.74,646.892512 1209.56,647.582512 1207.17,649.052512 C1205.64,649.992512 1203.45,650.882512 1202.97,652.282512 C1202.11,654.792512 1200.79,655.672512 1198.38,655.812512 C1197.5,655.862512 1196.62,656.292512 1195.79,656.662512 C1192.23,658.262512 1188.65,659.792512 1185.96,662.842512 C1185.23,663.672512 1183.62,664.572512 1182.79,664.302512 C1180.87,663.672512 1178.94,662.602512 1177.46,661.232512 C1175.29,659.202512 1172.91,658.362512 1170.03,658.332512 C1163.22,658.272512 1156.41,658.202512 1149.61,657.942512 C1146.96,657.842512 1144.72,658.302512 1143.1,660.332512 C1143.62,662.252512 1144.12,664.092512 1144.61,665.932512 C1142.68,666.392512 1141.28,666.732512 1139.84,667.072512 L1139.87,667.082512 Z M974.89,570.422512 C972.81,568.862512 971.28,567.642512 969.68,566.512512 C968.22,565.482512 967.11,565.732512 965.93,567.232512 C963.78,569.972512 961.14,571.892512 957.39,572.242512 C955.84,572.382512 954.34,573.712512 952.94,574.662512 C949.45,577.032512 946.18,579.772512 942.54,581.872512 C938.96,583.932512 936.8,586.992512 935.11,590.492512 C934.23,592.322512 935.61,593.502512 936.88,594.702512 C938.14,595.892512 939.33,595.362512 940.22,594.602512 C943.59,591.692512 946.85,588.642512 950.12,585.602512 C950.9,584.872512 951.39,583.632512 952.28,583.232512 C956.7,581.272512 960.47,577.702512 965.74,577.732512 C966.56,577.732512 967.52,577.182512 968.18,576.612512 C970.31,574.782512 972.32,572.822512 974.91,570.432512 L974.89,570.422512 Z M1224.96,514.872512 L1225.6,514.772512 C1225.18,514.062512 1224.77,513.342512 1224.35,512.632512 C1223.66,513.142512 1222.66,513.512512 1222.34,514.202512 C1221.02,517.052512 1219.62,519.912512 1218.79,522.912512 C1217.6,527.222512 1216.83,531.642512 1215.98,536.032512 C1214.94,541.392512 1214.62,547.022512 1209.91,550.902512 C1209.63,551.132512 1209.52,551.822512 1209.64,552.212512 C1210.63,555.502512 1214.03,556.372512 1216.24,553.772512 C1217.32,552.492512 1218.15,550.822512 1218.57,549.192512 C1219.83,544.312512 1220.54,539.282512 1222.02,534.472512 C1223.99,528.072512 1226.04,521.752512 1224.96,514.862512 L1224.96,514.872512 Z M915.55,595.302512 C913.21,596.622512 911.03,598.152512 908.62,599.142512 C906.22,600.132512 903.6,600.592512 900.67,601.402512 C901.32,602.722512 901.77,604.892512 902.59,605.042512 C905.55,605.602512 908.63,605.512512 911.67,605.592512 C913.79,605.652512 914.97,604.302512 916.24,602.752512 C918.54,599.932512 918.39,597.252512 915.54,595.302512 L915.55,595.302512 Z M1116.64,651.892512 C1117.16,653.342512 1117.21,654.552512 1117.8,654.942512 C1120.59,656.792512 1123.47,658.542512 1126.45,660.072512 C1128.02,660.872512 1129.54,659.862512 1130.19,658.502512 C1130.68,657.472512 1130.75,655.892512 1130.32,654.832512 C1129.5,652.832512 1127.79,651.462512 1125.5,651.472457 C1122.7,651.472457 1119.91,651.732512 1116.64,651.902512 L1116.64,651.892512 Z M924,529.222512 C924,531.542512 923.72,533.642512 924.11,535.622512 C924.33,536.762512 925.44,538.252512 926.47,538.592512 C928.18,539.162512 930.16,538.942512 932.02,539.052512 C932.44,535.392512 929.57,531.802512 924,529.222512 L924,529.222512 Z M926.64,597.902512 C928.54,598.402512 929.76,597.052512 929.84,595.362512 C929.89,594.332512 928.72,592.652512 927.73,592.292512 C926.13,591.702512 924.2,591.742512 922.46,591.952512 C921.81,592.032512 920.88,593.322512 920.84,594.092512 C920.71,596.642512 922.65,597.862512 926.65,597.902512 L926.64,597.902512 Z M1108.69,639.91248 C1105.61,639.922512 1103.67,641.222512 1103.74,643.232512 C1103.81,645.082512 1106.8,647.762512 1108.73,647.072512 C1110.19,646.552512 1111.53,644.922512 1112.28,643.452512 C1112.91,642.232512 1110.32,639.902512 1108.69,639.91248 L1108.69,639.91248 Z M883.69,609.022512 C883.83,609.362512 883.96,609.702512 884.1,610.042512 C885.7,610.612512 887.28,611.252512 888.91,611.742512 C890.39,612.182512 891.46,611.502512 891.52,610.002512 C891.61,607.492512 891.42,604.972512 891.37,603.162512 C888.81,605.112512 886.25,607.062512 883.69,609.022512 L883.69,609.022512 Z M927.83,673.482512 C928.32,677.372512 931.05,679.172512 934.63,678.152512 C934.99,678.052512 935.61,677.642512 935.58,677.532512 C935.09,675.842512 934.69,674.082512 933.89,672.522512 C933.25,671.282512 932.1,671.462512 930.92,672.222512 C930.04,672.792512 928.95,673.042512 927.82,673.482512 L927.83,673.482512 Z M882,235.092512 C882.31,232.282512 881.09,231.212512 879.49,232.242512 C877.9,233.272512 876.64,234.852512 875.4,236.332512 C875.18,236.592512 875.6,237.722512 876.02,238.122512 C876.55,238.622512 877.79,239.232512 878.05,239.012512 C879.64,237.662512 881.03,236.092512 882,235.092512 L882,235.092512 Z M1070.32,522.822512 C1069.89,524.102512 1069.11,525.402512 1069.13,526.682512 C1069.14,527.532512 1070.17,528.542512 1071,529.122512 C1071.37,529.382512 1072.69,528.962512 1073.02,528.472512 C1074.58,526.112512 1073.46,523.692512 1070.32,522.822512 L1070.32,522.822512 Z M890.74,240.262512 C886.71,244.812512 886.54,245.792512 889.37,247.852512 C892.58,244.812512 893.13,241.772512 890.74,240.262512 Z M1230.46,465.672512 C1230.76,467.522512 1227.6,469.052512 1230.61,470.742512 C1231.1,471.022512 1232.5,470.572512 1232.85,470.042512 C1233.84,468.562512 1232.92,466.852512 1230.46,465.672512 Z M951.66,89.0825116 C950.94,92.6125116 951.74,93.5225116 954.97,93.3125116 C953.75,91.7525116 952.7,90.4125116 951.66,89.0825116 Z M1231.54,481.892512 C1230.49,481.252512 1229.83,480.512512 1229.28,480.602512 C1228.61,480.702512 1228.05,481.492512 1227.44,481.982512 C1228.01,482.562512 1228.56,483.582512 1229.16,483.612512 C1229.79,483.642512 1230.46,482.732512 1231.54,481.902512 L1231.54,481.892512 Z" id="Shape"></path>
            <path d="M0.02,330.972512 C1.89,325.052512 3.83,319.152512 5.63,313.202512 C31.29,228.102512 56.93,142.992512 82.53,57.8725116 C83.01,56.2625116 83.62,55.6225116 85.4,55.6725116 C109.05,56.3325116 132.7,56.8825116 156.35,57.5225116 C168.84,57.8625116 181.32,58.3425116 193.81,58.7325116 C218.95,59.5125116 244.09,60.3025116 269.24,61.0325116 C284.64,61.4825116 300.05,61.7325116 315.46,62.2325116 C337.19,62.9325116 358.91,63.8025116 380.63,64.5325116 C393.37,64.9625116 406.11,65.3425116 418.85,65.6525116 C442.5,66.2325116 466.16,66.6525116 489.81,67.3125116 C514.87,68.0225116 539.92,68.9725116 564.98,69.7425116 C593.7,70.6225116 622.43,71.4225116 651.15,72.2525116 C674.3,72.9225116 697.45,73.5425116 720.59,74.2525116 C733.82,74.6625116 747.05,75.2425116 760.28,75.6325116 C761.5,75.6725116 762.75,74.9125116 763.99,74.5525116 C765.17,74.2125116 766.39,73.9725116 767.55,73.5625116 C768.21,73.3325116 768.85,72.9225116 769.37,72.4525116 C774.82,67.4425116 780.48,62.6325116 785.55,57.2625116 C787.79,54.8825116 789.85,55.0625116 792.1,55.9525116 C795.27,57.2025116 798.42,57.2825116 801.61,56.6125116 C802.32,56.4625116 803.3,55.4525116 803.38,54.7525116 C803.67,52.0425116 803.58,49.2925116 803.75,46.5625116 C803.96,43.1825116 804.28,39.8025116 804.58,36.4325116 C804.6,36.2125116 804.79,35.9925116 804.93,35.7925116 C810.9,26.9425116 818.73,23.8925116 829.18,26.4425116 C833.05,27.3825116 836.87,28.5525116 840.73,29.5525116 C843.76,30.3425116 847.42,28.5525116 848.35,25.6025116 C849.53,21.8725116 851.86,19.0625116 854.68,16.5125116 C857.02,14.3925116 859.07,11.8525116 861.66,10.1325116 C864.23,8.43251159 867.24,7.29251159 870.19,6.31251159 C874.51,4.88251159 879.04,4.06251159 883.3,2.50251159 C887.18,1.08251159 891,-0.0374884076 895.18,0.172511592 C897.67,0.302511592 900.18,0.152511592 902.67,0.0325115924 C905.37,-0.107488408 907.65,0.132511592 909.96,2.20251159 C912.3,4.29251159 915.49,5.54251159 918.46,6.77251159 C919.5,7.20251159 921.03,6.25251159 922.31,6.35251159 C924.61,6.54251159 926.58,6.33251159 928.2,4.40251159 C928.56,3.96251159 930.12,3.81251159 930.37,4.13251159 C931.05,4.98251159 931.95,6.42251159 931.65,7.16251159 C929.98,11.2025116 931.43,15.0325116 932,18.9325116 C932.62,23.1725116 931.97,23.9925116 927.77,24.6925116 C922.51,25.5725116 917.28,26.5825116 911.51,27.6325116 C916.47,31.4925116 921.26,34.5625116 927.4,34.4225116 C928.04,34.4025116 928.84,33.2625116 929.23,32.4725116 C929.78,31.3725116 929.85,30.0325116 930.43,28.9725116 C930.76,28.3725116 931.68,27.9125116 932.4,27.8125116 C932.7,27.7725116 933.35,28.7625116 933.5,29.3725116 C933.74,30.3225116 933.61,31.3625116 933.8,32.3325116 C933.93,33.0125116 934.17,34.0525116 934.63,34.2225116 C936.42,34.9025116 936.07,36.2625116 936.23,37.6725116 C936.66,41.6125116 936.88,45.6725116 938.03,49.4325116 C939.75,55.0525116 942.28,60.4225116 944.27,65.9725116 C945.18,68.5125116 945.69,71.2025116 946.25,73.8525116 C946.36,74.3525116 945.98,75.3425116 945.62,75.4525116 C945,75.6525116 943.94,75.6125116 943.55,75.2125116 C941.91,73.4925116 940.23,71.7525116 939,69.7425116 C937.6,67.4625116 936.46,65.0725116 936.02,62.2525116 C935.74,60.4325116 933.85,58.8525116 932.4,56.7725116 C931.41,60.8425116 930.5,64.0125116 929.9,67.2425116 C929.47,69.5425116 929.42,71.9225116 929.28,74.2625116 C929.21,75.4925116 931.34,76.7325116 932.79,75.9025116 C935.21,74.5225116 936.11,75.9925116 937.05,77.6225116 C938.13,79.4925116 939.38,80.6425116 941.63,79.3525116 C941.83,79.2325116 942.12,79.2225116 942.36,79.2425116 C947.99,79.8325116 953.54,80.7925116 958.17,84.3725116 C959.34,85.2825116 960.06,86.7825116 960.99,88.0225116 C959.06,89.8425116 957.32,89.2625116 955.6,88.5525116 C953.91,87.8525116 952.3,86.9425116 950.57,86.3725116 C947.99,85.5325116 946.15,87.0325116 946.23,89.7525116 C946.29,91.7325116 946.3,93.7225116 946.48,95.6925116 C946.53,96.2525116 947.01,97.0125116 947.5,97.2525116 C948.69,97.8325116 950,98.1725116 951.26,98.6025116 L949.97,100.322512 L955.01,98.3725116 C956.4,99.8025116 959.4,99.6125116 961.57,97.6525116 C962.91,96.4425116 963.98,94.9125116 965.13,93.4925116 C966.21,92.1625116 967.21,91.8025116 968.65,93.1525116 C969.34,93.7925116 970.47,94.0825116 971.45,94.2825116 C975.36,95.0825116 976.05,96.2925116 974.49,99.9525116 C974.11,100.852512 973.67,101.732512 973.28,102.582512 C975.96,104.762512 979.92,104.492512 981.76,101.922512 C982.28,101.192512 982.27,99.9325116 982.13,98.9625116 C982.04,98.3225116 981.35,97.7125116 980.81,97.2125116 C976.68,93.4325116 976.63,92.0725116 980.92,88.5125116 C984.18,85.8025116 987.44,83.0325116 990.98,80.7225116 C995.26,77.9325116 996.34,78.6425116 998.31,83.2625116 C999.49,86.0225116 1001.39,88.5025116 1003.17,90.9625116 C1004.33,92.5625116 1006.04,93.7725116 1007.19,95.3825116 C1009.58,98.7625116 1008.37,102.102512 1004.64,103.792512 C1003.19,104.452512 1001.96,105.732512 1000.83,106.922512 C998.42,109.472512 995.52,111.642512 994.79,115.512512 C994.55,116.812512 993.12,117.912512 992.17,119.042512 C991,120.432512 989.87,121.892512 988.52,123.092512 C987.57,123.942512 986.28,124.422512 985.15,125.072512 L984.29,124.422512 C984.84,122.322512 985.59,120.242512 985.85,118.102512 C985.99,116.952512 985.63,115.142512 984.85,114.622512 C983.92,114.022512 982.29,114.462512 980.96,114.532512 C980.7,114.542512 980.36,114.892512 980.22,115.162512 C977.68,120.042512 973.22,123.212512 969.09,126.382512 C966.57,128.322512 962.64,129.072512 959.32,129.142512 C955.85,129.212512 952.97,129.362512 950.12,131.762512 C948.61,133.032512 945.95,132.962512 943.79,133.402512 C940.16,134.142512 936.5,134.762512 932.87,135.512512 C925.23,137.102512 917.63,138.852512 909.96,140.262512 C908.29,140.572512 906.41,139.702512 904.62,139.382512 C902.92,139.072512 901.22,138.612512 899.51,138.552512 C898.9,138.532512 897.89,139.422512 897.74,140.052512 C897.6,140.662512 898.18,141.942512 898.72,142.122512 C900.75,142.802512 902.86,143.352512 904.98,143.572512 C907.36,143.822512 908.7,144.512512 908.32,147.242512 C907.95,149.922512 907.76,152.642512 907.69,155.352512 C907.67,156.162512 908.16,157.592512 908.63,157.682512 C909.45,157.842512 910.48,157.282512 911.33,156.842512 C911.7,156.652512 911.86,156.022512 912.1,155.582512 C914.08,152.012512 914.11,151.862512 918.11,152.672512 C920.55,153.162512 921.81,155.112512 922.11,156.762512 C923.47,157.802512 924.99,158.372512 925.16,159.212512 C925.55,161.112512 923.39,163.482512 921.67,163.472512 C918.93,163.452512 916.12,163.052512 914.49,166.122512 C914.33,166.432512 913.42,166.342512 912.86,166.442512 C910.54,166.862512 908.92,168.202512 908.05,170.352512 C906.52,174.102512 902.43,176.042512 898.63,174.752512 C895.31,173.622512 893.88,174.182512 892.41,177.362512 C891.34,179.692512 890.72,182.182512 891.91,184.582512 C892.49,185.752512 893.7,187.302512 894.74,187.412512 C897.48,187.682512 898.46,189.552512 899.64,191.402512 C898.13,194.972512 897.14,195.522512 893.64,193.892512 C890.28,192.332512 887.27,190.392512 887.4,185.832512 C887.43,184.632512 886.25,183.062512 885.18,182.302512 C884.66,181.932512 882.86,182.772512 882.04,183.512512 C878.22,186.932512 874.49,190.462512 871.97,195.052512 C871.16,196.512512 871.23,197.782512 872.38,198.902512 C873.81,200.292512 875.33,201.592512 876.82,202.922512 C877.95,203.932512 878.28,204.972512 878.09,206.632512 C877.9,208.262512 878.28,210.612512 879.36,211.612512 C882.08,214.122512 881.77,217.172512 882.11,220.402512 C879.46,220.182512 878.27,218.692512 877.2,216.612512 C876.48,215.212512 875.09,213.492512 873.74,213.232512 C871.01,212.702512 869.67,210.982512 868.31,209.002512 C867.98,208.522512 867.7,207.852512 867.24,207.672512 C866.55,207.402512 865.72,207.482512 864.95,207.412512 C864.93,208.082512 864.64,208.932512 864.94,209.402512 C866.27,211.542512 867.81,213.552512 869.2,215.662512 C869.67,216.382512 870.33,217.392512 870.13,218.022512 C869.92,218.652512 868.78,219.262512 867.99,219.352512 C865.63,219.632512 863.42,219.722512 861.14,218.132512 C858.6,216.362512 855.48,215.412512 852.66,214.122512 C851.39,215.442512 850.28,220.712512 851.13,221.882512 C851.56,222.472512 852.47,222.862512 853.23,223.052512 C855,223.492512 856.8,223.822512 858.61,224.072512 C860.25,224.302512 860.36,225.192512 860.07,226.562512 C859.52,229.212512 857.51,230.402512 855.33,231.272512 C853.28,232.102512 852.05,232.932512 853.18,235.452512 C853.58,236.362512 853.46,238.002512 852.88,238.762512 C851.11,241.062512 852.06,243.092512 852.93,245.582512 C853.6,245.012512 854.12,244.652512 854.54,244.202512 C855.49,243.212512 856.3,241.482512 857.36,241.312512 C860.9,240.762512 864.52,240.772512 868.11,240.572512 L868.46,241.562512 C867.51,242.522512 866.52,243.442512 865.62,244.442512 C865.05,245.072512 864.47,245.762512 864.17,246.542512 C863.19,249.062512 864.12,250.692512 866.55,251.882512 C868.47,252.822512 870.18,254.192512 871.96,255.412512 C874.05,256.842512 875.91,255.782512 877.83,254.982512 C879.52,254.282512 881.24,253.632512 883.23,252.852512 C883.56,256.322512 881.5,257.572512 879.51,259.142512 C879.96,259.482512 880.34,259.762512 880.9,260.192512 C880.02,261.292512 879.14,262.372512 878.29,263.482512 C876.9,265.302512 877.44,268.652512 879.37,269.832512 C879.76,270.072512 880.54,270.042512 880.93,269.802512 C881.4,269.502512 881.93,268.842512 881.94,268.332512 C882.01,264.652512 884.74,261.672512 888.54,261.312512 C888.78,263.182512 888.94,265.072512 889.32,266.912512 C889.45,267.532512 890.22,268.502512 890.62,268.472512 C891.36,268.412512 892.08,267.762512 892.74,267.272512 C892.95,267.112512 893,266.662512 893.01,266.342512 C893.16,261.232512 897.12,259.482512 900.84,257.662512 C903.02,256.592512 903.78,257.222512 903.93,259.732512 C904.11,262.622512 905,263.482512 907.69,262.262512 C910.09,261.172512 912.19,259.292512 914.23,257.552512 C915.52,256.452512 914.5,255.292512 913.49,254.732512 C910.19,252.892512 908.51,249.852512 907.39,246.502512 C906.23,243.002512 904.02,241.402512 900.37,241.552512 C898.99,241.612512 897.61,241.382512 896.18,241.282512 C897.48,236.642512 902.24,235.922512 907.71,237.222512 C909.36,240.942512 910.6,244.292512 912.29,247.382512 C914.06,250.622512 916.9,252.682512 920.54,253.792512 C925.62,255.352512 930.63,257.152512 935.6,259.002512 C936.35,259.282512 937,260.342512 937.31,261.182512 C937.85,262.652512 937.95,264.282512 938.48,265.752512 C939.42,268.372512 941.24,268.792512 943.21,266.852512 C944.51,265.572512 945.62,264.102512 946.8,262.692512 C947.99,261.262512 948.99,261.432512 949.84,263.022512 C950.11,263.532512 950.49,264.052512 950.57,264.602512 C951.49,271.042512 956.46,274.112512 961.2,277.312512 C962.38,278.112512 963.47,278.482512 963.22,280.412512 C963.08,281.472512 964.16,282.812512 964.92,283.842512 C966.03,285.342512 967.04,286.632512 966.39,288.772512 C965.95,290.222512 966.29,291.912512 966.34,293.492512 C966.44,296.532512 966.26,296.742512 963.25,296.942512 C962.87,296.962512 962.5,297.042512 962.34,297.072512 C963.51,299.102512 964.52,301.132512 965.81,302.962512 C966.45,303.862512 967.61,304.392512 968.53,305.092512 C968.73,304.032512 968.96,302.972512 969.13,301.902512 C969.18,301.592512 969.09,301.262512 969.01,300.342512 C970.24,301.512512 971.28,302.202512 971.93,303.162512 C974.98,307.612512 977.88,312.162512 980.94,316.612512 C982.34,318.642512 984.06,320.452512 985.47,322.472512 C987.4,325.232512 989.36,328.002512 990.9,330.972512 C991.43,331.992512 990.75,333.642512 990.65,335.002512 C990.52,336.752512 989.68,338.992512 990.44,340.162512 C994.15,345.852512 997.94,351.562512 1002.44,356.602512 C1004.46,358.862512 1006.02,360.922512 1006.68,364.142512 C1005.77,364.382512 1004.85,364.862512 1003.95,364.822512 C1001.27,364.682512 999.18,365.662512 997.17,367.402512 C996.23,368.222512 993.84,368.972512 993.49,368.572512 C992.09,366.942512 993.49,365.562512 994.75,364.402512 C998.41,361.012512 998.56,359.202512 995.7,355.012512 C992.89,350.892512 990.25,346.642512 987.35,342.582512 C986.69,341.662512 985.35,340.942512 984.21,340.732512 C983.34,340.572512 982.29,341.352512 981.32,341.722512 C981.89,342.852512 982.25,344.162512 983.07,345.052512 C983.97,346.022512 985.3,346.592512 986.44,347.332512 C985.6,348.432512 984.74,349.512512 983.92,350.622512 C981.3,354.182512 978.7,357.762512 975.96,361.502512 C973.42,360.392512 970.84,360.782512 969.04,363.412512 C968.6,364.062512 968.59,365.592512 969.06,366.172512 C970.62,368.102512 972.55,369.722512 974.22,371.582512 C976.71,374.352512 978.89,377.432512 981.59,379.962512 C983.7,381.942512 986.41,383.272512 988.95,384.962512 C992.01,380.752512 987.48,378.212512 987.61,374.602512 C989.91,375.102512 991.65,376.262512 992.21,378.462512 C993.56,383.802512 997.36,387.062512 1001.56,390.032512 C1002.12,390.432512 1002.96,390.532512 1003.68,390.572512 C1005.34,390.652512 1007.03,390.782512 1008.67,390.582512 C1014.96,389.812512 1020.16,392.642512 1025.37,395.462512 C1026.46,396.052512 1026.9,399.282512 1025.87,400.222512 C1024.19,401.742512 1024.57,403.292512 1025.39,404.942512 C1025.91,405.982512 1026.49,407.002512 1027.15,407.952512 C1028.99,410.602512 1029.62,413.442512 1029.35,416.682512 C1029.2,418.572512 1029.7,420.572512 1030.22,422.432512 C1030.8,424.482512 1030.48,426.172512 1029.69,428.162512 C1027.89,432.742512 1025.04,437.162512 1026.23,442.472512 C1026.4,443.242512 1026.83,444.032512 1027.35,444.632512 C1031.75,449.632512 1036.19,454.592512 1040.64,459.532512 C1040.95,459.872512 1041.46,460.072512 1041.91,460.252512 C1050.59,463.602512 1059.29,466.902512 1067.96,470.282512 C1076.28,473.532512 1084.88,474.932512 1093.8,475.102512 C1099.68,475.212512 1105.57,475.812512 1111.39,476.642512 C1113.7,476.972512 1115.83,478.522512 1118.04,479.512512 L1117.83,480.722512 C1111.36,481.112512 1104.89,481.502512 1098.34,481.902512 C1098.15,483.952512 1098.59,485.072512 1100.93,485.142512 C1106.91,485.332512 1112.87,485.822512 1118.85,485.992512 C1120.16,486.032512 1121.69,485.462512 1122.76,484.682512 C1126.19,482.192512 1129.71,479.732512 1132.74,476.792512 C1136.92,472.732512 1141.79,470.682512 1147.42,469.482512 C1162.03,466.382512 1176.58,463.002512 1191.1,459.472512 C1194.6,458.622512 1197.93,456.942512 1201.18,455.312512 C1202.51,454.652512 1203.53,453.212512 1204.47,451.962512 C1206.77,448.912512 1209,445.802512 1211.11,442.622512 C1211.62,441.862512 1211.8,440.732512 1211.75,439.782512 C1211.52,434.882512 1211.05,429.992512 1210.9,425.092512 C1210.79,421.612512 1211.22,418.112512 1211.05,414.642512 C1211,413.682512 1209.75,412.682512 1208.89,411.882512 C1208.21,411.262512 1207.27,410.922512 1206.45,410.452512 C1207.16,409.602512 1207.79,408.662512 1208.59,407.912512 C1209.43,407.122512 1210.5,406.582512 1211.34,405.792512 C1211.7,405.462512 1212.03,404.562512 1211.84,404.292512 C1211.52,403.832512 1210.8,403.492512 1210.21,403.432512 C1209.59,403.372512 1208.92,403.662512 1208.29,403.852512 C1206.08,404.502512 1204.36,403.782512 1203.07,401.962512 C1202.49,401.152512 1202.03,400.262512 1201.52,399.402512 C1199.71,396.312512 1198.71,395.882512 1195.44,396.752512 C1192.45,397.552512 1190.7,399.562512 1190.74,402.372512 C1190.81,406.882512 1189.88,411.502512 1192.37,415.712512 C1189.36,416.622512 1186.92,414.922512 1186.81,411.972512 C1186.64,407.062512 1186.55,402.152512 1186.63,397.242512 C1186.79,387.502512 1186.91,377.772512 1184.94,368.152512 C1184.54,366.222512 1184.37,364.222512 1183.81,362.352512 C1183.31,360.702512 1182.7,358.942512 1181.63,357.642512 C1176.94,351.932512 1171.63,346.962512 1164.58,344.182512 C1157.24,341.282512 1149.73,344.132512 1146.15,351.432512 C1145.82,352.092512 1146.16,353.822512 1146.57,353.972512 C1147.7,354.362512 1149.13,354.502512 1150.25,354.142512 C1151.96,353.592512 1153.51,352.532512 1155.12,351.692512 C1155.38,351.962512 1155.64,352.242512 1155.89,352.512512 C1155.47,353.252512 1155.23,354.292512 1154.6,354.672512 C1152.99,355.642512 1151.2,356.282512 1149.5,357.122512 C1146.87,358.412512 1145.55,358.112512 1143.57,355.942512 C1142.12,354.352512 1140.51,352.912512 1138.96,351.412512 C1138.72,351.182512 1138.26,350.992512 1138.23,350.762512 C1137.89,347.192512 1135.02,345.102512 1133.35,342.322512 C1132.94,341.642512 1132.86,340.762512 1132.58,339.812512 C1132.15,339.842512 1131.67,339.872512 1131.2,339.892512 C1129.3,339.972512 1128.49,338.722512 1129.41,337.042512 C1130.9,334.332512 1133.57,333.362512 1136.33,333.202512 C1143.31,332.812512 1150.31,332.562512 1157.29,332.652512 C1159.75,332.682512 1162.2,333.852512 1164.65,334.512512 C1167.6,335.292512 1170.55,336.092512 1173.5,336.852512 C1174.62,337.142512 1175.89,337.142512 1176.87,337.682512 C1185.52,342.472512 1194.11,347.342512 1199.88,355.832512 C1210.21,371.022512 1219.46,386.792512 1225.46,404.222512 C1228.03,411.672512 1229.88,419.362512 1232.16,426.912512 C1233.57,431.572512 1235.92,435.972512 1235.92,441.012512 C1235.92,442.372512 1235.92,443.732512 1235.92,445.142512 C1233.34,444.692512 1232.13,442.972512 1231.84,439.702512 C1231.77,438.872512 1231.99,437.972512 1231.74,437.222512 C1231.4,436.202512 1230.91,434.692512 1230.16,434.472512 C1229.18,434.182512 1227.5,434.582512 1226.82,435.322512 C1225.92,436.302512 1225.19,437.952512 1225.3,439.242512 C1225.52,441.892512 1224.67,443.892512 1223.03,445.842512 C1221.97,447.102512 1221.1,448.552512 1220.39,450.032512 C1220.1,450.642512 1220.45,451.562512 1220.51,452.342512 C1221.31,452.252512 1222.24,452.392512 1222.87,452.022512 C1223.77,451.492512 1224.55,450.672512 1225.21,449.842512 C1227.29,447.252512 1228.63,447.272512 1230.5,450.022512 C1230.66,450.052512 1230.84,450.142512 1230.97,450.092512 C1236.12,448.342512 1237.39,449.412512 1237.68,454.912512 C1238.14,463.872512 1238.9,472.822512 1239.54,481.772512 C1239.54,481.852512 1239.56204,481.942512 1239.56204,482.022512 C1239.21,485.882512 1238.86,489.752512 1238.5,493.612512 C1238.42,494.432512 1238.08,495.282512 1238.2,496.062512 C1239.02,501.052512 1236.4,504.892512 1233.95,508.752512 C1233.5,509.462512 1232.39,509.752512 1231.59,510.232512 C1231.34,509.362512 1230.75,508.412512 1230.92,507.622512 C1231.23,506.192512 1231.81,504.742512 1232.6,503.522512 C1234.38,500.782512 1234.51,497.572512 1235.49,494.632512 C1237.29,489.202512 1235.72,483.972512 1235.76,478.662512 C1235.81,472.892512 1234.39,467.472512 1232.32,462.172512 C1232.21,461.882512 1231.99,461.642512 1231.66,461.132512 C1230.47,461.832512 1229.36,462.492512 1228.1,463.232512 C1227.35,462.732512 1226.6,462.012512 1225.71,461.692512 C1225.05,461.462512 1224.2,461.752512 1223.44,461.812512 C1223.52,462.552512 1223.32,463.662512 1223.73,463.982512 C1225.47,465.352512 1225.36,466.812512 1224.6,468.622512 C1224.2,469.582512 1224.26,470.742512 1224.05,471.792512 C1223.68,473.632512 1223.31,475.282512 1220.76,475.392512 C1218.81,475.482512 1215.26,480.202512 1215.56,482.122512 C1215.65,482.682512 1216.83,483.402512 1217.57,483.472512 C1218.64,483.562512 1219.76,483.132512 1220.7,482.952512 C1220.96,483.282512 1221.05,483.342512 1221.06,483.412512 C1221.48,486.465845 1223.22,487.989178 1226.28,487.982512 C1229.4,487.982512 1229.75,488.332512 1230.2,491.372512 C1230.41,492.762512 1230.8,494.132512 1231.19,495.482512 C1232.04,498.502512 1232.01,501.382512 1230.1,504.062512 C1229.67,504.662512 1229.4,505.382512 1229.15,506.082512 C1228.23,508.692512 1227,509.172512 1223.97,507.792512 C1224.68,506.422512 1225.38,505.062512 1226.29,503.292512 C1222.69,503.152512 1220.69,505.192512 1218.74,507.682512 C1218.07,507.352512 1217.26,507.182512 1216.8,506.692512 C1214.73,504.462512 1212.17,504.142512 1209.3,504.252512 C1204.42,504.452512 1199.46,503.602512 1194.74,505.582512 C1194.52,505.672512 1194.23,505.722512 1194,505.672512 C1185.19,503.782512 1177.5,508.222512 1169.31,509.902512 C1166.24,510.532512 1163.01,510.312512 1159.88,510.692512 C1154.78,511.312512 1149.42,511.332512 1144.69,513.042512 C1138.66,515.212512 1133.06,518.682512 1127.45,521.882512 C1125.9,522.772512 1124.98,524.732512 1123.67,526.102512 C1122.92,526.892512 1121.96,527.492512 1121.1,528.182512 L1120.49,527.692512 C1120.49,525.722512 1120.34,523.742512 1120.57,521.802512 C1120.64,521.172512 1121.6,520.462512 1122.31,520.122512 C1124.37,519.152512 1126.52,518.362512 1128.67,517.472512 C1126.09,512.812512 1121.99,512.082512 1118.71,515.492512 C1116.82,517.452512 1114.67,518.222512 1112.03,518.282512 C1110.83,518.312512 1109.29,518.442512 1108.51,519.162512 C1106.3,521.232512 1103.86,520.912512 1101.27,520.572512 C1098.8,520.252512 1096.3,520.042512 1093.81,519.892512 C1090.67,519.702512 1087.96,520.562512 1085.74,523.002512 C1084.3,524.592512 1082.6,526.012512 1080.81,527.202512 C1079.67,527.952512 1078.15,528.122512 1076.19,528.752512 C1076.19,525.912512 1076.21,523.762512 1076.19,521.612512 C1076.15,518.802512 1075.84,518.762512 1073.18,518.782512 C1070.6,518.792512 1068.6,519.822512 1066.61,521.192512 C1065.65,521.852512 1064.67,522.552512 1063.59,522.932512 C1061.16,523.772512 1060.44,525.312512 1060.63,527.852512 C1060.95,532.122512 1058.78,535.612512 1056.05,538.582512 C1052.05,542.932512 1047.82,547.062512 1043.61,551.222512 C1042.13,552.682512 1035.94,553.492512 1032.71,552.732512 C1033.03,550.502512 1033.48,548.232512 1033.64,545.952512 C1033.71,544.922512 1033.2,543.852512 1032.95,542.802512 C1031.98,543.392512 1030.7,543.762512 1030.11,544.612512 C1028.41,547.062512 1027.01,549.712512 1025.42,552.242512 C1025.11,552.732512 1024.54,553.142512 1024,553.362512 C1023.4,553.602512 1022.7,553.602512 1022.03,553.662512 C1019.47,553.892512 1016.91,554.112512 1014.11,554.362512 C1013.97,552.222512 1013.84,550.282512 1013.72,548.402512 C1010.07,548.032512 1010.03,548.062512 1009.65,551.372512 C1009.15,555.652512 1008.73,556.152512 1004.34,555.592512 C1000.83,555.152512 997.97,556.132512 995.31,558.262512 C992.45,560.552512 989.69,562.992512 986.62,564.952512 C985.61,565.592512 983.31,565.512512 982.43,564.772512 C980.98,563.542512 979.96,563.482512 978.31,564.072512 C977.41,564.392512 976.19,563.822512 975.12,563.652512 L974.94,562.902512 C976.9,561.432512 978.79,559.862512 980.84,558.532512 C983.1,557.062512 984.46,555.202512 984.54,552.452512 C984.57,551.202512 984.81,549.952512 984.77,548.712512 C984.68,546.082512 985.64,543.962512 987.75,542.462512 C989.74,541.042512 990.1,539.212512 990.13,536.852512 C990.21,529.112512 990.53,521.372512 990.99,513.642512 C991.05,512.662512 992.54,511.792512 993.3,510.822512 C993.89,510.062512 994.76,509.252512 994.82,508.422512 C994.92,506.872512 993.57,506.982512 992.38,506.722512 C991.01,506.432512 989.76,505.552512 988.45,504.932512 C988.53,504.602512 988.6,504.272512 988.68,503.942512 C990.98,503.502512 993.31,503.162512 995.58,502.572512 C996.6,502.302512 998.22,501.602512 998.27,500.982512 C998.37,499.852512 997.65,498.542512 996.98,497.502512 C996.42,496.632512 995.44,496.032512 994.6,495.272512 C991.86,496.652512 989.31,499.112512 985.39,496.452512 C987.38,494.772512 988.99,493.132512 990.87,491.902512 C992.36,490.922512 994.23,490.542512 995.81,489.692512 C996.76,489.182512 998.2,488.262512 998.18,487.552512 C998.15,486.422512 997.12,485.302512 996.45,484.212512 C996.3,483.962512 995.89,483.882512 995.61,483.702512 C993.73,482.552512 993.6,480.882512 995.11,479.362512 C995.75,478.722512 996.66,477.432512 996.42,477.022512 C995.97,476.232512 994.77,475.362512 993.92,475.392512 C991.97,475.482512 989.95,475.872512 988.16,476.622512 C987.64,476.842512 987.34,478.912512 987.74,479.742512 C989.46,483.312512 989.37,485.662512 986.81,488.652512 C985.68,489.982512 984.53,491.332512 983.2,492.452512 C982.37,493.152512 981.19,493.422512 980.17,493.882512 L979.46,493.092512 C980.31,491.662512 981.08,490.172512 982.04,488.822512 C982.99,487.492512 984.15,486.312512 984.46,485.592512 C983.01,483.772512 981.65,481.872512 980.06,480.172512 C979.58,479.662512 978.5,479.582512 977.68,479.532512 C976.7,479.482512 975.7,479.782512 974.72,479.742512 C971.25,479.582512 970.19,478.472512 969.78,474.722512 C966.6,473.752512 965.7,474.182512 964.25,476.782512 C963.86,477.472512 962.78,477.932512 961.93,478.162512 C961.08,478.392512 960.12,478.212512 958.69,478.212512 C960.07,480.652512 960.87,483.002512 963.35,484.222512 C964.16,484.622512 964.97,485.082512 965.66,485.672512 C966.82,486.662512 967.11,487.842512 965.52,488.632512 C963.68,489.542512 964.17,490.752512 964.68,492.172512 C965.07,493.262512 965.22,494.442512 965.56,495.952512 C962.66,495.942512 960.14,497.032512 958.2,494.612512 C957.86,494.192512 957.49,493.632512 957.48,493.132512 C957.42,490.582512 955.65,489.402512 953.85,488.122512 C951.64,489.542512 951.12,491.282512 952.49,493.442512 C954.09,495.962512 953.44,498.092512 951.67,500.262512 C950.96,501.132512 950.67,502.422512 950.42,503.572512 C949.74,506.632512 949.41,509.772512 948.51,512.762512 C947.92,514.732512 946.39,514.842512 945.23,513.092512 C944.13,511.442512 942.86,510.992512 940.92,510.842512 C938.74,510.682512 936.61,509.742512 934.48,509.062512 C932.51,508.432512 930.62,508.082512 928.45,510.132512 C931.21,512.922512 933.91,515.652512 936.6,518.372512 C934.57,520.602512 932.94,520.762512 930.7,519.562512 C929.99,519.182512 928.48,519.442512 927.81,519.992512 C925.07,522.212512 924.15,522.422512 920.93,520.852512 C920.63,520.702512 920.34,520.542512 920.04,520.392512 C916.43,518.622512 915.17,519.012512 912.91,522.582512 C913,522.712512 913.07,522.932512 913.18,522.962512 C917.44,524.022512 918.64,527.092512 918.84,531.062512 C918.99,534.012512 919.56,536.932512 919.95,539.982512 C917.37,540.312512 916.42,538.862512 915.77,537.392512 C914.22,533.902512 912.87,530.322512 911.41,526.802512 C911.07,525.982512 910.76,524.992512 910.12,524.472512 C907.79,522.572512 905.32,520.842512 902.93,519.022512 C902.37,518.602512 901.63,518.122512 901.47,517.522512 C900.56,514.252512 899.75,510.952512 899,507.642512 C898.65,506.112512 898.5,504.542512 898.2,502.642512 C895.76,503.582512 894.34,505.622512 893.87,507.632512 C893.33,509.962512 891.37,512.392512 893.22,514.992512 C891.26,518.432512 894.47,520.142512 895.77,522.452512 C897.31,525.202512 899.08,527.812512 900.63,530.552512 C901.09,531.362512 901.1,532.412512 901.37,533.572512 C898.91,533.642512 897.49,533.002512 896.71,530.682512 C896.26,529.352512 894.89,528.332512 893.94,527.172512 C893.13,528.432512 892.14,529.622512 891.56,530.992512 C891.05,532.192512 891.01,533.582512 890.74,534.882512 C890.2,537.472512 889.43,537.822512 886.91,536.822512 C885.06,536.092512 883.16,535.472512 881.13,534.742512 C880.22,538.132512 881.57,540.192512 883.08,542.212512 C885.48,545.412512 887.95,548.542512 890.22,551.832512 C892.04,554.472512 891.29,556.262512 888.32,557.382512 C886.08,558.222512 884.49,559.552512 884.67,562.352512 C884.76,563.752512 884.26,565.182512 884.03,566.602512 L883.3,566.682512 C881.7,564.212512 879.42,561.932512 878.66,559.232512 C877.67,555.702512 875.44,556.372512 872.58,556.222512 C872.87,558.452512 873.14,560.452512 873.38,562.452512 C873.53,563.682512 873.73,564.922512 873.73,566.152512 C873.73,568.112512 872.82,569.372512 870.69,569.202512 C865.47,568.782512 860.77,569.852512 857.31,573.662512 C857.09,576.832512 856.87,579.922512 856.66,582.842512 C854.3,583.862512 853.17,583.142512 852.81,581.032512 C852.8,580.952512 852.73,580.882512 852.72,580.802512 C851.67,574.052512 846.94,571.832512 840.91,571.192512 C840.61,571.162512 840.33,571.022512 840.04,570.922512 L839.74,570.162512 C841.58,569.262512 843.39,568.322512 845.26,567.502512 C845.84,567.252512 846.58,567.392512 847.23,567.252512 C851.46,566.332512 851.77,565.742512 850.56,561.582512 C850.24,560.482512 850.28,559.282512 849.99,558.162512 C849.72,557.082512 849.33,556.012512 848.84,555.012512 C846.56,550.432512 843.54,546.092512 844,540.612512 C844.12,539.132512 844.71,537.692512 844.76,536.212512 C844.81,534.702512 844.48,533.172512 844.31,531.652512 L843.26,531.612512 C843.06,532.152512 842.74,532.682512 842.68,533.232512 C842.29,536.612512 842.12,540.022512 841.57,543.362512 C840.99,546.892512 841.45,550.112512 843.24,553.212512 C843.94,554.422512 844.48,555.762512 844.81,557.122512 C845.72,560.772512 843.18,563.202512 839.59,561.942512 C837.84,561.332512 836.3,560.052512 834.74,558.982512 C833.51,558.132512 832.45,557.032512 831.18,556.252512 C830.51,555.842512 829.56,555.912512 828.74,555.762512 C828.71,556.682512 828.34,557.762512 828.7,558.492512 C830.06,561.252512 831.71,563.852512 833.13,566.582512 C833.59,567.462512 833.98,568.602512 833.83,569.532512 C833.3,572.842512 830.57,574.942512 827.19,574.652512 C826.59,574.602512 825.66,573.682512 825.58,573.072512 C824.63,565.902512 823.66,558.732512 823.01,551.532512 C822.12,541.672512 820.94,531.882512 818.16,522.342512 C817.95,521.632512 818.19,520.502512 818.67,519.922512 C821.08,517.002512 821.68,513.642512 820.28,510.342512 C818.9,507.102512 816.04,505.552512 812.38,505.092512 C809.9,504.782512 807.51,503.552512 805.15,502.592512 C803.7,502.002512 803.8,500.832512 804.62,499.732512 C807.41,496.002512 810.15,492.222512 813.06,488.592512 C814.66,486.602512 815.83,484.652512 814.61,481.882512 C812.22,481.522512 809.96,481.642512 807.72,483.562512 C805.84,485.172512 803.47,486.402512 801.12,487.212512 C797.52,488.452512 794.99,486.652512 791.82,484.512512 C785.53,480.252512 781.25,474.242512 775.93,469.182512 C775.05,468.342512 773.92,467.742512 772.86,467.112512 C768.96,464.792512 764.53,463.412512 761.18,460.092512 C759.45,458.372512 757.23,457.152512 755.43,455.482512 C752.19,452.472512 751.49,448.462512 751.61,444.272512 C751.85,436.462512 752.34,428.662512 752.42,420.862512 C752.46,416.092512 751.92,411.312512 751.66,406.772512 C745.75,405.722512 741.36,409.172512 735.88,410.202512 L735.88,358.482512 C730.34,358.482512 725.28,358.392512 720.23,358.502512 C710.65,358.702512 701.08,359.072512 691.5,359.252512 C670.01,359.662512 648.52,359.962512 627.03,360.382512 C615.87,360.602512 604.71,360.942512 593.56,361.322512 C591.56,361.392512 590.53,360.912512 590.84,358.742512 C591.09,356.992512 590.21,356.412512 588.54,356.372512 C583.13,356.252512 577.72,355.952512 572.3,355.872512 C556.47,355.642512 540.64,355.522512 524.82,355.272512 C495,354.802512 465.19,354.272512 435.37,353.762512 C416.38,353.442512 397.39,353.132512 378.4,352.772512 C362.58,352.472512 346.77,352.012512 330.95,351.852512 C327.02,351.812512 323.28,352.792512 319.56,354.722512 C317.2,355.952512 313.61,355.102512 310.62,354.762512 C308.73,354.542512 306.96,353.132512 305.08,352.972512 C291.33,351.802512 277.55,350.822512 263.79,349.722512 C262.13,349.592512 261.14,350.112512 260.41,351.572512 C258.7,354.992512 256.97,358.402512 255.09,361.742512 C254.68,362.462512 253.71,363.152512 252.89,363.322512 C248.46,364.252512 243.99,365.012512 239.22,365.892512 L239.22,352.002512 C236.81,351.802512 234.61,351.542512 232.4,351.442512 C219.5,350.882512 206.61,350.302512 193.71,349.822512 C171.15,348.992512 148.6,348.232512 126.04,347.452512 C114.14,347.042512 102.23,346.732512 90.33,346.272512 C76.43,345.732512 62.55,344.762512 48.65,344.562512 C35.43,344.382512 22.19,344.902512 8.97,345.272512 C6.72,345.332512 5.37,345.182512 4.55,342.662512 C3.35,338.982512 1.57,335.482512 0.04,331.912512 L0.04,330.912512 L0.02,330.972512 Z" id="Path"></path>
            <path d="M996.58,591.112512 C996.46,590.092512 996.5,589.342512 996.28,588.682512 C995.69,586.942512 995.67,585.432512 997.45,584.342512 C999.44,583.122512 1001.71,582.022512 1003.68,583.612512 C1004.68,584.422512 1005.07,586.512512 1005.02,588.012512 C1004.92,591.242512 1004.35,594.452512 1004.02,597.682512 C1003.92,598.642512 1004.01,599.612512 1004.01,600.682512 C1007.19,599.512512 1009.5,596.352512 1009.46,593.542512 C1009.41,590.322512 1011.71,587.142512 1014.74,586.232512 C1015.91,585.882512 1018.43,587.832512 1018.76,589.122512 C1019.14,590.612512 1019.62,592.112512 1020.29,593.502512 C1022.17,597.392512 1022.09,601.362512 1020.72,605.292512 C1020.51,605.902512 1018.77,605.972512 1017.48,606.382512 C1017.97,608.132512 1018.56,610.212512 1019.29,612.832512 C1020.51,611.902512 1021.67,611.182512 1022.61,610.242512 C1023.8,609.042512 1025.04,608.732512 1026.3,609.832512 C1028.91,612.102512 1031.46,614.442512 1033.94,616.852512 C1034.37,617.272512 1034.46,618.232512 1034.43,618.922512 C1034.11,625.922512 1036.06,631.552512 1043.2,634.342512 C1044.08,634.682512 1044.71,635.632512 1045.46,636.302512 C1045.38,636.652512 1045.3,637.012512 1045.22,637.362512 C1041.82,637.572512 1038.38,638.242512 1035.04,637.892512 C1027.19,637.062512 1019.39,635.682512 1011.45,636.702512 C1005.22,637.512512 999.01,638.452512 992.77,639.202512 C989.98,639.542512 987.12,639.852512 984.33,639.662512 C976.67,639.132512 969.28,640.872512 961.79,641.862512 C958.3,642.322512 955.64,644.282512 953.39,646.832512 C951.19,649.322512 949.01,651.852512 946.93,654.452512 C945.7,655.992512 944.39,656.082512 942.82,655.152512 C941.68,654.472512 940.45,653.902512 939.41,653.092512 C935.62,650.102512 931.71,647.232512 928.22,643.912512 C926.37,642.162512 925.21,639.642512 923.97,637.342512 C923.72,636.872512 924.34,635.342512 924.88,635.132512 C930.3,633.082512 935.79,633.322512 941.23,635.132512 C941.63,635.262512 942.02,635.932512 942.11,636.402512 C942.4,638.032512 942.79,639.692512 942.71,641.322512 C942.6,643.652512 944.29,643.502512 945.66,643.832512 C947.2,644.202512 948.1,643.302512 948.37,641.952512 C948.61,640.752512 948.63,639.462512 948.53,638.232512 C948.32,635.592512 949.08,633.252512 949.9,630.762512 C951.11,627.062512 953.55,624.682512 956.33,622.272512 C957.85,620.962512 958.54,618.722512 959.97,617.262512 C968.52,608.512512 977.07,599.762512 985.9,591.302512 C987.16,590.102512 989.91,590.262512 991.98,590.162512 C993.34,590.092512 994.72,590.702512 996.58,591.112512 Z" id="Path"></path>
            <path d="M1139.89,667.032512 C1141.33,666.692512 1142.73,666.352512 1144.66,665.892512 C1144.16,664.052512 1143.67,662.212512 1143.15,660.292512 C1144.77,658.272512 1147.01,657.812512 1149.66,657.902512 C1156.46,658.152512 1163.27,658.232512 1170.08,658.292512 C1172.96,658.322512 1175.34,659.162512 1177.51,661.192512 C1178.98,662.572512 1180.92,663.632512 1182.84,664.262512 C1183.67,664.532512 1185.28,663.632512 1186.01,662.802512 C1188.71,659.752512 1192.29,658.222512 1195.84,656.622512 C1196.67,656.252512 1197.55,655.822512 1198.43,655.772512 C1200.83,655.642512 1202.16,654.752512 1203.02,652.242512 C1203.5,650.842512 1205.69,649.952512 1207.22,649.012512 C1209.62,647.542512 1209.79,646.852512 1208.68,643.642512 C1207.87,641.302512 1205.9,641.852512 1204.31,641.852512 C1203.73,641.852512 1202.87,642.962512 1202.62,643.722512 C1201.54,646.902512 1199.31,649.022512 1196.67,650.882512 C1193.55,653.082512 1190.52,655.422512 1187.37,657.582512 C1186,658.522512 1184.7,658.342512 1184.18,656.262512 C1187.13,653.622512 1190.49,651.202512 1193.07,648.122512 C1195.37,645.382512 1197.87,642.512512 1198.51,638.682512 C1198.6,638.152512 1198.93,637.642512 1199.22,637.172512 C1199.97,635.982512 1201.36,634.842512 1201.42,633.622512 C1201.59,630.222512 1202.35,626.592512 1199.55,623.662512 C1198.23,622.282512 1196.97,620.802512 1196,619.182512 C1195.54,618.422512 1195.83,617.222512 1195.77,616.222512 C1196.6,616.392512 1197.53,616.382512 1198.26,616.762512 C1202.54,619.032512 1205.5,622.692512 1207.66,626.852512 C1212.03,635.252512 1216.27,643.732512 1220.27,652.322512 C1222.76,657.682512 1222.81,663.422512 1221.55,669.182512 C1221.04,671.532512 1220.77,673.932512 1220.28,676.282512 C1219.68,679.202512 1217.92,680.792512 1214.86,681.252512 C1206.08,682.582512 1197.43,681.552512 1188.82,680.022512 C1184.02,679.162512 1179.26,678.962512 1174.46,679.952512 C1173.34,680.182512 1172.06,680.382512 1171,680.082512 C1164.43,678.192512 1157.48,677.502512 1151.58,673.452512 C1148.05,671.032512 1144.06,669.282512 1139.92,667.042512 L1139.89,667.032512 Z" id="Path"></path>
            <path d="M974.91,570.362512 C972.33,572.752512 970.31,574.712512 968.18,576.542512 C967.52,577.112512 966.56,577.672512 965.74,577.662512 C960.47,577.642512 956.71,581.202512 952.28,583.162512 C951.39,583.562512 950.9,584.802512 950.12,585.532512 C946.86,588.572512 943.6,591.622512 940.22,594.532512 C939.33,595.302512 938.15,595.832512 936.88,594.632512 C935.61,593.432512 934.23,592.242512 935.11,590.422512 C936.8,586.922512 938.96,583.862512 942.54,581.802512 C946.18,579.712512 949.45,576.972512 952.94,574.592512 C954.35,573.632512 955.84,572.312512 957.39,572.172512 C961.14,571.822512 963.78,569.912512 965.93,567.162512 C967.1,565.662512 968.22,565.412512 969.68,566.442512 C971.27,567.572512 972.81,568.782512 974.89,570.352512 L974.91,570.362512 Z" id="Path"></path>
            <path d="M1224.97,514.822512 C1226.05,521.712512 1224,528.032512 1222.03,534.432512 C1220.55,539.232512 1219.84,544.272512 1218.58,549.152512 C1218.16,550.782512 1217.33,552.452512 1216.25,553.732512 C1214.04,556.332512 1210.64,555.462512 1209.65,552.172512 C1209.53,551.782512 1209.65,551.092512 1209.92,550.862512 C1214.62,546.982512 1214.95,541.362512 1215.99,535.992512 C1216.84,531.602512 1217.61,527.172512 1218.8,522.872512 C1219.63,519.862512 1221.03,517.002512 1222.35,514.162512 C1222.67,513.472512 1223.67,513.112512 1224.36,512.592512 C1224.78,513.302512 1225.19,514.022512 1225.61,514.732512 L1224.97,514.832512 L1224.97,514.822512 Z" id="Path"></path>
            <path d="M915.56,595.252512 C918.41,597.202512 918.57,599.882512 916.26,602.702512 C914.99,604.252512 913.81,605.602512 911.69,605.542512 C908.65,605.452512 905.56,605.542512 902.61,604.992512 C901.79,604.842512 901.34,602.672512 900.69,601.352512 C903.62,600.552512 906.24,600.092512 908.64,599.092512 C911.05,598.102512 913.23,596.572512 915.57,595.252512 L915.56,595.252512 Z" id="Path"></path>
            <path d="M1116.66,651.852512 C1119.93,651.682512 1122.73,651.422512 1125.52,651.422512 C1127.81,651.422512 1129.52,652.782512 1130.34,654.782512 C1130.77,655.832512 1130.7,657.412512 1130.21,658.452512 C1129.56,659.812512 1128.04,660.832512 1126.47,660.022512 C1123.49,658.492512 1120.61,656.742512 1117.82,654.892512 C1117.23,654.502512 1117.18,653.292512 1116.66,651.842512 L1116.66,651.852512 Z" id="Path"></path>
            <path d="M924.01,529.182512 C929.58,531.762512 932.45,535.352512 932.03,539.012512 C930.17,538.902512 928.19,539.122512 926.48,538.552512 C925.44,538.202512 924.34,536.722512 924.12,535.582512 C923.74,533.612512 924.01,531.502512 924.01,529.182512 L924.01,529.182512 Z" id="Path"></path>
            <path d="M926.66,597.852512 C922.66,597.812512 920.73,596.592512 920.85,594.042512 C920.89,593.262512 921.83,591.972512 922.47,591.902512 C924.21,591.692512 926.15,591.642512 927.74,592.242512 C928.74,592.612512 929.9,594.282512 929.85,595.312512 C929.77,597.002512 928.55,598.362512 926.65,597.852512 L926.66,597.852512 Z" id="Path"></path>
            <path d="M1108.71,639.872512 C1110.34,639.872512 1112.93,642.192512 1112.3,643.412512 C1111.55,644.882512 1110.21,646.512512 1108.75,647.032512 C1106.82,647.722512 1103.83,645.042512 1103.76,643.192512 C1103.69,641.192512 1105.63,639.892512 1108.71,639.872512 L1108.71,639.872512 Z" id="Path"></path>
            <path d="M883.71,608.982512 C886.27,607.032512 888.83,605.072512 891.39,603.122512 C891.44,604.932512 891.62,607.452512 891.54,609.962512 C891.49,611.462512 890.41,612.142512 888.93,611.702512 C887.3,611.212512 885.72,610.572512 884.12,610.002512 C883.98,609.662512 883.85,609.322512 883.71,608.982512 L883.71,608.982512 Z" id="Path"></path>
            <path d="M927.85,673.442512 C928.98,673.002512 930.07,672.752512 930.95,672.182512 C932.12,671.422512 933.28,671.242512 933.92,672.482512 C934.72,674.032512 935.12,675.792512 935.61,677.492512 C935.64,677.602512 935.02,678.012512 934.66,678.112512 C931.08,679.132512 928.35,677.332512 927.86,673.442512 L927.85,673.442512 Z" id="Path"></path>
            <path d="M882.02,235.052512 C881.05,236.052512 879.65,237.622512 878.07,238.972512 C877.81,239.192512 876.57,238.582512 876.04,238.082512 C875.61,237.682512 875.19,236.562512 875.42,236.292512 C876.66,234.812512 877.92,233.232512 879.51,232.202512 C881.11,231.172512 882.33,232.242512 882.02,235.052512 L882.02,235.052512 Z" id="Path"></path>
            <path d="M1070.33,522.782512 C1073.47,523.652512 1074.58,526.072512 1073.03,528.432512 C1072.71,528.922512 1071.38,529.342512 1071.01,529.082512 C1070.18,528.502512 1069.15,527.492512 1069.14,526.642512 C1069.12,525.352512 1069.9,524.052512 1070.33,522.782512 L1070.33,522.782512 Z" id="Path"></path>
            <path d="M890.75,240.222512 C893.14,241.732512 892.59,244.772512 889.38,247.812512 C886.54,245.752512 886.72,244.772512 890.75,240.222512 Z" id="Path"></path>
            <path d="M1230.47,465.632512 C1232.93,466.812512 1233.85,468.522512 1232.86,470.002512 C1232.51,470.532512 1231.11,470.982512 1230.62,470.702512 C1227.61,469.012512 1230.77,467.472512 1230.47,465.632512 Z" id="Path"></path>
            <path d="M951.67,89.0425116 C952.71,90.3725116 953.76,91.7025116 954.98,93.2725116 C951.75,93.4925116 950.95,92.5825116 951.67,89.0425116 Z" id="Path"></path>
            <path d="M1231.54,481.852512 C1230.46,482.682512 1229.78,483.592512 1229.16,483.562512 C1228.56,483.532512 1228.01,482.512512 1227.44,481.932512 C1228.05,481.442512 1228.61,480.652512 1229.28,480.552512 C1229.83,480.472512 1230.5,481.212512 1231.54,481.842512 L1231.54,481.852512 Z" id="Path"></path>
        </g>
    </g>
</svg>