<?xml version="1.0" encoding="UTF-8"?>
<svg width="294.212913px" height="198.700963px" viewBox="0 0 294.212913 198.700963" version="1.1" xmlns="http://www.w3.org/2000/svg" xmlns:xlink="http://www.w3.org/1999/xlink">
    <title>policy-change</title>
    <defs>
        <linearGradient x1="50.0012044%" y1="92.9995306%" x2="50.0012044%" y2="-1.98239477%" id="linearGradient-1">
            <stop stop-color="#E6E6E6" offset="0%"></stop>
            <stop stop-color="#FFFFFF" offset="65%"></stop>
        </linearGradient>
        <linearGradient x1="25.1110664%" y1="28.1332171%" x2="69.1947875%" y2="79.7015312%" id="linearGradient-2">
            <stop stop-color="#FFFFFF" offset="10%"></stop>
            <stop stop-color="#E3E3E3" offset="65%"></stop>
        </linearGradient>
    </defs>
    <g id="policy-change" stroke="none" stroke-width="1" fill="none" fill-rule="evenodd">
        <path d="M32.24,75.5809625 C23.72,25.6809625 101,-30.5290375 158.09,19.5309625 C158.09,19.5309625 175.66,12.5009625 202.88,29.1909625 C231.9,46.9809625 227.47,66.0809625 227.47,66.0809625 C321.45,69.5909625 310.03,198.700963 231.56,198.700963 L50.94,198.700963 C50.94,198.700963 0,182.010963 0,130.190963 C0,95.0609625 32.29,75.8809625 32.24,75.5809625 L32.24,75.5809625 Z" id="Path" stroke="url(#linearGradient-2)" stroke-width="7" fill="url(#linearGradient-1)" fill-rule="nonzero"></path>
        <g id="Group" transform="translate(123.490000, 95.320963)" fill="#FF250A" fill-rule="nonzero">
            <path d="M0,0.43 C0.89,0.24 2.09,0.12 3.29,0.12 C5.16,0.12 6.63,0.38 7.68,1.37 C8.64,2.21 9.07,3.55 9.07,4.92 C9.07,6.67 8.54,7.9 7.7,8.81 C6.69,9.87 5.06,10.35 3.76,10.35 L3.14,10.35 L3.14,16.37 L0,16.37 L0,0.43 L0,0.43 Z M3.14,7.77 C3.28,7.82 3.45,7.82 3.64,7.82 C5.22,7.82 5.94,6.69 5.94,5.18 C5.94,3.76 5.36,2.66 3.9,2.66 C3.61,2.66 3.32,2.71 3.13,2.78 L3.13,7.77 L3.14,7.77 Z" id="Shape"></path>
            <path d="M20.52,7.99 C20.52,14.09 18.36,16.56 15.29,16.56 C11.62,16.56 10.18,12.67 10.18,8.23 C10.18,3.79 11.93,-1.13686838e-13 15.51,-1.13686838e-13 C19.42,-1.13686838e-13 20.53,4.3 20.53,7.99 L20.52,7.99 Z M13.44,8.28 C13.44,11.95 14.14,13.82 15.41,13.82 C16.68,13.82 17.23,11.42 17.23,8.13 C17.23,5.3 16.8,2.73 15.38,2.73 C14.13,2.73 13.44,4.79 13.44,8.27 L13.44,8.28 Z" id="Shape"></path>
            <polygon id="Path" points="22.51 0.19 25.65 0.19 25.65 13.7 29.8 13.7 29.8 16.36 22.5 16.36 22.5 0.18"></polygon>
            <polygon id="Path" points="34.78 0.19 34.78 16.37 31.64 16.37 31.64 0.19"></polygon>
            <path d="M45.34,16.12 C44.88,16.34 44,16.5 42.89,16.5 C38.76,16.5 36.79,13.09 36.79,8.51 C36.79,2.41 40.17,0.04 43.32,0.04 C44.42,0.04 45.19,0.26 45.5,0.47 L44.97,3.11 C44.61,2.94 44.2,2.8 43.51,2.8 C41.73,2.8 40.13,4.34 40.13,8.34 C40.13,12.34 41.59,13.72 43.51,13.72 C44.04,13.72 44.64,13.6 45.02,13.48 L45.33,16.12 L45.34,16.12 Z" id="Path"></path>
            <path d="M49.99,16.36 L49.99,10.17 L46.44,0.18 L49.8,0.18 L50.9,4.04 C51.19,5.07 51.5,6.27 51.74,7.47 L51.79,7.47 C51.98,6.29 52.25,5.12 52.53,3.97 L53.49,0.18 L56.75,0.18 L53.13,10.05 L53.13,16.36 L49.99,16.36 L49.99,16.36 Z" id="Path"></path>
            <path d="M69.41,16.12 C68.95,16.34 68.07,16.5 66.96,16.5 C62.83,16.5 60.86,13.09 60.86,8.51 C60.86,2.41 64.24,0.04 67.39,0.04 C68.5,0.04 69.26,0.26 69.58,0.47 L69.05,3.11 C68.69,2.94 68.28,2.8 67.59,2.8 C65.81,2.8 64.21,4.34 64.21,8.34 C64.21,12.34 65.67,13.72 67.59,13.72 C68.12,13.72 68.72,13.6 69.1,13.48 L69.41,16.12 L69.41,16.12 Z" id="Path"></path>
            <polygon id="Path" points="74.28 0.19 74.28 6.67 77.57 6.67 77.57 0.19 80.71 0.19 80.71 16.37 77.57 16.37 77.57 9.6 74.28 9.6 74.28 16.37 71.14 16.37 71.14 0.19"></polygon>
            <path d="M86.06,12.67 L85.34,16.37 L82.29,16.37 L85.79,0.19 L89.56,0.19 L92.7,16.37 L89.65,16.37 L88.95,12.67 L86.05,12.67 L86.06,12.67 Z M88.68,10.22 L88.15,6.84 C87.98,5.86 87.77,4.25 87.62,3.17 L87.55,3.17 C87.38,4.25 87.14,5.93 86.97,6.87 L86.37,10.23 L88.67,10.23 L88.68,10.22 Z" id="Shape"></path>
            <path d="M94.49,16.36 L94.49,0.18 L97.37,0.18 L99.87,6.52 C100.35,7.77 101.14,9.86 101.6,11.25 L101.65,11.25 C101.55,9.55 101.34,6.74 101.34,3.76 L101.34,0.18 L104.1,0.18 L104.1,16.36 L101.22,16.36 L98.75,10.22 C98.22,8.85 97.48,6.81 97.12,5.35 L97.07,5.35 C97.14,6.98 97.26,9.48 97.26,12.72 L97.26,16.37 L94.5,16.37 L94.49,16.36 Z" id="Path"></path>
            <path d="M115.85,15.93 C115.15,16.22 113.67,16.51 112.49,16.51 C110.64,16.51 109.25,15.98 108.17,14.9 C106.78,13.56 106.03,11.16 106.08,8.37 C106.15,2.49 109.51,0.04 112.95,0.04 C114.17,0.04 115.09,0.28 115.59,0.52 L115.04,3.23 C114.58,2.99 113.98,2.87 113.19,2.87 C111.05,2.87 109.35,4.33 109.35,8.56 C109.35,12.45 110.86,13.84 112.33,13.84 C112.62,13.84 112.83,13.82 112.95,13.77 L112.95,9.86 L111.51,9.86 L111.51,7.29 L115.85,7.29 L115.85,15.93 L115.85,15.93 Z" id="Path"></path>
            <polygon id="Path" points="125.04 9.26 121.34 9.26 121.34 13.63 125.52 13.63 125.52 16.37 118.2 16.37 118.2 0.19 125.23 0.19 125.23 2.93 121.34 2.93 121.34 6.65 125.04 6.65 125.04 9.27"></polygon>
        </g>
        <g id="ae" transform="translate(20.549388, 77.192119)" fill-rule="nonzero">
            <g id="Group">
                <path d="M21.7306116,26.1988437 C21.9006116,26.4788437 21.9306116,26.6188437 22.0106116,26.6688437 C27.5106116,29.8788437 33.0006116,33.0888437 38.5306116,36.2288437 C38.8306116,36.3988437 39.7006116,36.0588437 39.9606116,35.7088437 C40.6906116,34.7188437 41.3306116,33.6388437 41.8406116,32.5088437 C42.5506116,30.9188437 43.3606116,31.0188437 44.6906116,31.8488437 C56.5906116,39.2788437 68.5306116,46.6488437 80.4706116,54.0188437 C81.2706116,54.5188437 82.1506116,54.9788437 83.0606116,55.1988437 C84.5906116,55.5588437 85.9806116,55.0888437 87.0006116,53.8388437 C87.9706116,52.6488437 88.2706116,51.2188437 87.4706116,49.8988437 C86.8906116,48.9388437 86.0206116,47.9888437 85.0606116,47.4488437 C80.4506116,44.8588437 75.7506116,42.3988437 71.0906116,39.8988437 C63.0506116,35.5788437 55.0206116,31.2388437 46.9606116,26.9688437 C45.7906116,26.3488437 45.6906116,25.7588437 46.3606116,24.7388437 C47.0406116,23.6988437 47.5406116,22.5488437 48.2506116,21.5388437 C48.9606116,20.5088437 48.6506116,19.9488437 47.6706116,19.4088437 C45.0206116,17.9188437 42.3906116,16.3788437 39.7506116,14.8688437 C36.9406116,13.2488437 34.1306116,11.6388437 31.1606116,9.92884365 C27.9306116,15.5088437 24.8106116,20.9088437 21.7406116,26.2088437 L21.7306116,26.1988437 Z M26.5206116,66.9788437 C34.3706116,66.9788437 42.2206116,66.9988437 50.0606116,66.9788437 C53.3706116,66.9688437 53.2006116,67.5888437 53.1506116,63.7588437 C53.1206116,61.1188437 52.0206116,60.0088437 49.3306116,59.8588437 C48.3206116,59.8088437 48.0206116,59.4288437 47.8706116,58.4688437 C47.3606116,55.2088437 45.5006116,53.6488437 42.2106116,53.6388437 C32.0506116,53.6288437 21.8806116,53.6188437 11.7206116,53.6388437 C8.43061163,53.6388437 6.57061163,55.2188437 6.07061163,58.4788437 C5.92061163,59.4688437 5.55061163,59.8088437 4.58061163,59.8588437 C0.920611634,60.0488437 -0.0193883662,61.0888437 0.000301095092,64.7588437 C0.00727830042,66.2388437 0.770611634,66.9788437 2.29061163,66.9788437 C10.3606116,66.9788437 18.4406116,66.9788437 26.5106116,66.9788437 L26.5206116,66.9788437 Z M30.2406116,7.21884365 C30.7206116,7.75884365 31.1206116,8.45884365 31.7206116,8.81884365 C37.7006116,12.3288437 43.7106116,15.7788437 49.7006116,19.2588437 C50.8206116,19.9088437 51.7206116,19.6788437 52.5406116,18.7488437 C53.5106116,17.6488437 54.5106116,16.5688437 55.4606116,15.4588437 C56.9006116,13.7888437 56.7606116,13.0488437 54.8006116,11.9088437 C52.7106116,10.6888437 50.6006116,9.48884365 48.5006116,8.27884365 C44.1106116,5.74884365 39.7206116,3.19884365 35.3206116,0.678843652 C34.3906116,0.148843652 33.1606116,-0.561156348 32.5306116,0.778843652 C31.6006116,2.74884365 31.0306116,4.88884365 30.2206116,7.22884365 L30.2406116,7.21884365 Z M40.3306116,39.4488437 C39.7706116,38.8588437 39.3206116,38.1388437 38.6706116,37.7588437 C32.9306116,34.3988437 27.1406116,31.1488437 21.4206116,27.7588437 C19.8606116,26.8288437 18.7406116,26.9588437 17.6406116,28.3588437 C16.8706116,29.3288437 15.9906116,30.2088437 15.1706116,31.1388437 C13.6206116,32.8688437 13.7306116,33.6388437 15.7506116,34.8088437 C19.2106116,36.8188437 22.6906116,38.7888437 26.1506116,40.7888437 C29.2306116,42.5588437 32.2906116,44.3488437 35.3706116,46.1088437 C36.2806116,46.6288437 37.4306116,47.1688437 38.0106116,45.9088437 C38.9106116,43.9188437 39.5106116,41.7988437 40.3406116,39.4488437 L40.3306116,39.4488437 Z" id="Shape" fill="#8C6239"></path>
                <path d="M21.7306116,26.1988437 C24.8006116,20.8988437 27.9206116,15.5088437 31.1506116,9.91884365 C34.1206116,11.6288437 36.9306116,13.2388437 39.7406116,14.8588437 C42.3806116,16.3788437 45.0006116,17.9088437 47.6606116,19.3988437 C48.6306116,19.9488437 48.9506116,20.5088437 48.2406116,21.5288437 C47.5306116,22.5388437 47.0306116,23.6988437 46.3506116,24.7288437 C45.6806116,25.7588437 45.7906116,26.3388437 46.9506116,26.9588437 C55.0106116,31.2288437 63.0406116,35.5688437 71.0806116,39.8888437 C75.7506116,42.3988437 80.4406116,44.8488437 85.0506116,47.4388437 C86.0206116,47.9788437 86.8806116,48.9288437 87.4606116,49.8888437 C88.2606116,51.2088437 87.9606116,52.6388437 86.9906116,53.8288437 C85.9806116,55.0788437 84.5906116,55.5488437 83.0506116,55.1888437 C82.1406116,54.9788437 81.2606116,54.5088437 80.4606116,54.0088437 C68.5206116,46.6388437 56.5806116,39.2688437 44.6806116,31.8388437 C43.3406116,31.0088437 42.5306116,30.9088437 41.8306116,32.4988437 C41.3306116,33.6288437 40.6806116,34.7088437 39.9506116,35.6988437 C39.6906116,36.0488437 38.8206116,36.3888437 38.5206116,36.2188437 C32.9806116,33.0788437 27.4906116,29.8688437 22.0006116,26.6588437 C21.9206116,26.6088437 21.8806116,26.4688437 21.7206116,26.1888437 L21.7306116,26.1988437 Z" id="Path" fill="#999999"></path>
                <path d="M26.5206116,66.9788437 C18.4506116,66.9788437 10.3706116,66.9788437 2.30061163,66.9788437 C0.780611634,66.9788437 0.0172783004,66.2388437 0.0103010951,64.7588437 C-0.00938836624,61.0788437 0.930611634,60.0488437 4.59061163,59.8588437 C5.56061163,59.8088437 5.93061163,59.4688437 6.08061163,58.4788437 C6.58061163,55.2188437 8.43061163,53.6488437 11.7306116,53.6388437 C21.8906116,53.6188437 32.0606116,53.6188437 42.2206116,53.6388437 C45.5106116,53.6388437 47.3706116,55.1988437 47.8806116,58.4688437 C48.0306116,59.4288437 48.3306116,59.8088437 49.3406116,59.8588437 C52.0406116,60.0088437 53.1306116,61.1188437 53.1606116,63.7588437 C53.2106116,67.5888437 53.3806116,66.9688437 50.0706116,66.9788437 C42.2206116,67.0088437 34.3706116,66.9788437 26.5306116,66.9788437 L26.5206116,66.9788437 Z" id="Path" fill="#FF250A"></path>
                <path d="M30.2406116,7.21884365 C31.0506116,4.88884365 31.6206116,2.74884365 32.5506116,0.768843652 C33.1806116,-0.571156348 34.4106116,0.138843652 35.3406116,0.668843652 C39.7406116,3.18884365 44.1306116,5.72884365 48.5206116,8.26884365 C50.6206116,9.47884365 52.7206116,10.6788437 54.8206116,11.8988437 C56.7806116,13.0388437 56.9106116,13.7888437 55.4806116,15.4488437 C54.5206116,16.5588437 53.5206116,17.6288437 52.5606116,18.7388437 C51.7406116,19.6688437 50.8406116,19.8988437 49.7206116,19.2488437 C43.7306116,15.7688437 37.7106116,12.3188437 31.7406116,8.80884365 C31.1406116,8.45884365 30.7506116,7.74884365 30.2606116,7.20884365 L30.2406116,7.21884365 Z" id="Path" fill="#999999"></path>
                <path d="M40.3306116,39.4388437 C39.5006116,41.7888437 38.9006116,43.9088437 38.0006116,45.8988437 C37.4306116,47.1588437 36.2706116,46.6188437 35.3606116,46.0988437 C32.2806116,44.3388437 29.2106116,42.5488437 26.1406116,40.7788437 C22.6806116,38.7788437 19.2006116,36.8088437 15.7406116,34.7988437 C13.7206116,33.6288437 13.6106116,32.8688437 15.1606116,31.1288437 C15.9906116,30.1988437 16.8606116,29.3188437 17.6306116,28.3488437 C18.7406116,26.9488437 19.8506116,26.8288437 21.4106116,27.7488437 C27.1306116,31.1388437 32.9306116,34.3888437 38.6606116,37.7488437 C39.3106116,38.1288437 39.7606116,38.8588437 40.3206116,39.4388437 L40.3306116,39.4388437 Z" id="Path" fill="#FF250A"></path>
            </g>
        </g>
    </g>
</svg>